<svg width="41" height="32" viewBox="0 0 41 32" fill="none" xmlns="http://www.w3.org/2000/svg"><path fill-rule="evenodd" clip-rule="evenodd" d="M4.73 6.004c-2.122 0-2.192.046-2.73.264l14.53 13.728 4.081-3.978a3.589 3.589 0 0 1 .365-1.895l2.012-4.103c.004-3.752-.004-3.652.012-4.007-3.264.012-5.994.02-8.281.02-5.403 0-8.326-.03-9.989-.03z" fill="#664117"/><path fill-rule="evenodd" clip-rule="evenodd" d="M.453 8.004A3.564 3.564 0 0 0 0 9.74v17.712C0 29.47 1.689 31 3.446 31h25.993a3.555 3.555 0 0 0 3.557-3.547v-3.665a5.73 5.73 0 0 1-1.195.122c-2.782 0-5.237-1.961-5.804-4.725h-1.705a3.557 3.557 0 0 1-2.5-1.018l-4.274 4.07a1.187 1.187 0 0 1-.82.329c-.29 0-.579-.101-.808-.312L.453 8.004zM31.502.004c-3.303 0-6 2.904-6 6.475v4.163l-2.127 4.598c-.371.809.17 1.76 1.004 1.76h14.238c.83 0 1.379-.951 1.008-1.76l-2.132-4.598V6.479c0-3.571-2.688-6.475-5.991-6.475zM28 19c.587 1.332 2.041 1.997 3.5 1.997S34.413 20.332 35 19h-7z" fill="#664117"/></svg>