<svg width="39" height="38" viewBox="0 0 39 38" fill="none" xmlns="http://www.w3.org/2000/svg"><path fill-rule="evenodd" clip-rule="evenodd" d="M32.44 5.251c.294 0 .585.116.812.353a1.27 1.27 0 0 1 0 1.714l-4.573 4.843c-.22.237-.515.354-.805.354-.294 0-.589-.117-.813-.354L24.776 9.74a1.271 1.271 0 0 1 0-1.714c.224-.237.515-.354.809-.354.291 0 .585.117.809.354L27.87 9.59l3.761-3.986a1.11 1.11 0 0 1 .809-.353zM8.017 0C3.596 0 0 3.811 0 8.5c0 4.714 3.635 8.496 7.974 8.496h3.6v-6.661c0-2.983 2.288-5.405 5.099-5.405h.012c2.803.004 5.092 2.434 5.092 5.405v6.661h9.194c4.429 0 8.025-3.811 8.025-8.496C39 3.815 35.404 0 30.983 0H8.017z" fill="#664117"/><path fill-rule="evenodd" clip-rule="evenodd" d="M16.58 7c-1.578 0-2.864 1.317-2.864 2.933v15.235h-.024l-2.833-2.418a2.67 2.67 0 0 0-1.762-.658c-.815 0-1.626.368-2.173 1.08a2.872 2.872 0 0 0 .403 3.915l5.746 4.909h16.924V23.38c0-1.808-1.314-3.326-3.052-3.551l-7.492-.793V9.933c0-1.616-1.278-2.933-2.86-2.933h-.012zM14.008 34v2.664H14c0 .741.514 1.336 1.146 1.336h13.712c.628 0 1.138-.595 1.138-1.336V34H14.008z" fill="#664117"/></svg>