<svg width="37" height="37" viewBox="0 0 37 37" fill="none" xmlns="http://www.w3.org/2000/svg"><path fill-rule="evenodd" clip-rule="evenodd" d="M1.997 9A2.002 2.002 0 0 0 0 10.998a2.004 2.004 0 0 0 1.997 1.999V9zM28.004 9v4.333h3.35c.613 0 1.112.484 1.112 1.084V35h1.184c1.847 0 3.35-1.459 3.35-3.25v-19.5C37 10.452 35.497 9 33.65 9h-5.646zM21.796.003c-.796 2.03.944 3.994 3.098 3.994.36 0 .732-.055 1.106-.175v-2.82c0-.55-.49-.992-1.098-.992L21.796.003zM5.079 0c-.597 0-1.075.442-1.075.993v2.806c.385.136.775.198 1.15.198C7.272 3.997 9 2.027 8.199.003 4.026 0 5.349 0 5.079 0z" fill="#664117"/><path fill-rule="evenodd" clip-rule="evenodd" d="M10.559 0c.721 3.392-1.98 6.46-5.373 6.46-.389 0-.782-.041-1.186-.126v6.662h22V6.349a5.782 5.782 0 0 1-1.115.111c-3.366 0-6.082-3.035-5.372-6.442L10.559 0zM23.998 24.003a.997.997 0 1 0 0 1.994.997.997 0 1 0 0-1.994z" fill="#664117"/><path fill-rule="evenodd" clip-rule="evenodd" d="M24.004 22.024c1.829 0 3.316 1.436 3.316 3.206-.004 1.77-1.491 3.207-3.316 3.207-1.825 0-3.312-1.436-3.312-3.207 0-1.77 1.487-3.206 3.312-3.206zm-24-7.02v18.785c0 1.77 1.479 3.21 3.312 3.21h26.94a.73.73 0 0 0 .74-.715V16.326a.727.727 0 0 0-.74-.713H2.284a4.53 4.53 0 0 1-2.28-.61z" fill="#664117"/></svg>