<svg width="40" height="35" viewBox="0 0 40 35" fill="none" xmlns="http://www.w3.org/2000/svg"><path fill-rule="evenodd" clip-rule="evenodd" d="M30.573 3.9c.657 0 1.185.54 1.173 1.196v1.628a1.172 1.172 0 1 1-2.343 0V5.096a1.17 1.17 0 0 1 1.17-1.196zm0 5.338c.637 0 1.159.508 1.173 1.15v1.628a1.172 1.172 0 1 1-2.343 0v-1.628a1.17 1.17 0 0 1 1.17-1.15zm0 5.267c.65 0 1.173.522 1.173 1.17v1.633a1.174 1.174 0 0 1-1.173 1.196 1.17 1.17 0 0 1-1.17-1.196v-1.633c0-.648.523-1.17 1.17-1.17zM9.832 16.624a1.17 1.17 0 0 1 1.17 1.196v1.627a1.168 1.168 0 0 1-1.17 1.148 1.175 1.175 0 0 1-1.176-1.148V17.82a1.177 1.177 0 0 1 1.176-1.196zm20.74 3.173c.652 0 1.174.522 1.174 1.17v1.631a1.171 1.171 0 1 1-2.343 0v-1.631c0-.645.523-1.17 1.17-1.17zm-20.74 2.164a1.17 1.17 0 0 1 1.17 1.151v1.627a1.17 1.17 0 0 1-1.17 1.196 1.177 1.177 0 0 1-1.176-1.196v-1.627a1.177 1.177 0 0 1 1.176-1.151zm20.74 3.122c.652 0 1.174.529 1.174 1.176v1.631a1.173 1.173 0 0 1-2.343 0v-1.631c0-.647.523-1.176 1.17-1.176zm-20.74 2.119c.656 0 1.184.54 1.17 1.196v1.634a1.172 1.172 0 0 1-2.346 0v-1.634a1.178 1.178 0 0 1 1.176-1.196zm20.74 3.151c.658 0 1.186.539 1.174 1.196v1.633a1.172 1.172 0 0 1-2.343 0v-1.633a1.168 1.168 0 0 1 1.17-1.196zM38.829 0c-.145 0-.29.028-.43.082L30.44 3.238 19.6 1.523a8.397 8.397 0 0 1 .719 7.368l6.567 6.571a3.438 3.438 0 0 1-4.863 4.86l-6.567-6.57a8.378 8.378 0 0 1-4.457.4v.009c0 .642-.525 1.17-1.17 1.17a1.175 1.175 0 0 1-1.173-1.17v-.804a8.47 8.47 0 0 1-2.065-1.511C3.827 9.082 3.407 4.858 5.327 1.642L.765 3.349a1.172 1.172 0 0 0-.761 1.097V33.83c0 .644.525 1.167 1.17 1.17.142 0 .279-.026.409-.077l8.473-3.161 20.333 3.221a1.187 1.187 0 0 0 .61-.068l8.258-3.27c.446-.179.74-.608.74-1.091V1.173c0-.386-.192-.75-.513-.968h.006A1.185 1.185 0 0 0 38.828 0z" fill="#664117"/><path fill-rule="evenodd" clip-rule="evenodd" d="M19.535 11a8.808 8.808 0 0 1-.718.831c-.256.257-.53.502-.817.725l6.045 6.13c.211.208.485.311.758.311.279 0 .555-.105.769-.32a1.111 1.111 0 0 0 .011-1.547L19.535 11zM12.801.003a6.3 6.3 0 0 0-4.385 1.759 5.876 5.876 0 0 0 0 8.482 6.322 6.322 0 0 0 4.385 1.753c.8 0 1.604-.15 2.371-.456 2.316-.926 3.826-3.113 3.826-5.541 0-2.425-1.51-4.612-3.826-5.541a6.396 6.396 0 0 0-2.37-.456z" fill="#664117"/></svg>