<svg width="144" height="40" viewBox="0 0 144 40" fill="none" xmlns="http://www.w3.org/2000/svg">
<path fill-rule="evenodd" clip-rule="evenodd" d="M12.3495 3.00135C8.79535 3.00135 7.01691 3.00135 5.11709 3.58446C3.02087 4.33455 1.3679 5.96672 0.608245 8.03925C0.00270081 9.93401 0.00270081 11.6874 0.00270081 15.1981V25.791C0.00270081 29.3206 0.00270081 31.0593 0.593244 32.9499C1.3529 35.0211 3.00587 36.6533 5.10209 37.4034C7.01965 38.004 8.79535 38.004 12.3495 38.004H23.0884C26.6466 38.004 28.421 38.004 30.3344 37.4034C32.4321 36.6532 34.0836 35.0211 34.8433 32.9499C35.4489 31.0552 35.4489 29.3018 35.4489 25.791V15.213C35.4489 11.6982 35.4489 9.94479 34.8433 8.05405C34.0836 5.98287 32.4306 4.35072 30.3344 3.60061C28.4033 3 26.6466 3 23.0706 3H12.3482L12.3495 3.00135Z" fill="#00D633"/>
<path d="M19.1599 19.0524C22.8948 19.8426 24.6021 21.3705 24.6021 23.952C24.6021 27.1883 21.9333 29.5771 17.7671 29.83L17.3605 31.7443C17.3209 31.9313 17.1537 32.0653 16.9601 32.0653H13.755C13.4908 32.0653 13.2959 31.8218 13.3569 31.5681L13.8713 29.4274C11.8062 28.8472 10.1444 27.7186 9.1757 26.3255C9.05373 26.1501 9.09419 25.9104 9.26427 25.7799L11.5045 24.0594C11.6891 23.9175 11.9538 23.9591 12.0902 24.1467C13.2774 25.7781 15.0985 26.7442 17.2924 26.7442C19.2665 26.7442 20.7605 25.7959 20.7605 24.4261C20.7605 23.3725 20.0136 22.8984 17.5059 22.3715C13.184 21.4758 11.4766 19.8954 11.4766 17.3138C11.4766 14.3186 14.0259 12.0559 17.8715 11.7621L18.2913 9.78497C18.3311 9.59788 18.4981 9.46388 18.6918 9.46388H21.8539C22.1147 9.46388 22.309 9.70169 22.2538 9.95343L21.7677 12.1687C23.4225 12.6716 24.7699 13.5709 25.6086 14.6807C25.7386 14.8526 25.7051 15.0962 25.5371 15.2323L23.4932 16.8872C23.3156 17.0311 23.0563 16.9997 22.9118 16.8232C21.8731 15.5546 20.2377 14.8377 18.4662 14.8377C16.4921 14.8377 15.2649 15.6806 15.2649 16.8924C15.2649 17.8934 16.2253 18.4202 19.1599 19.0524Z" fill="white"/>
<path d="M55.9227 12.2144C55.8627 12.0571 55.7102 11.9529 55.5398 11.9529H52.213C52.0426 11.9529 51.8901 12.0572 51.83 12.2147L45.4209 29.0435C45.3203 29.3076 45.5181 29.5896 45.8039 29.5896H48.3241C48.4951 29.5896 48.6482 29.4846 48.7077 29.3262L50.0764 25.6841H57.6141L58.9948 29.3272C59.0546 29.4851 59.2073 29.5896 59.378 29.5896H61.9608C62.2468 29.5896 62.4445 29.3074 62.3437 29.0432L55.9227 12.2144ZM51.171 22.7733L53.8203 15.6988L56.507 22.7733H51.171Z" fill="black"/>
<path d="M78.5515 26.9323C78.3206 26.9517 78.1013 26.9613 77.7887 26.9613C76.7439 26.9613 76.097 26.8263 76.097 25.6963V19.371H78.387C78.6129 19.371 78.7962 19.1902 78.7962 18.9671V17.0854C78.7962 16.8623 78.6129 16.6814 78.387 16.6814H76.097V13.3517C76.097 13.1286 75.9138 12.9477 75.6879 12.9477H73.3219C73.096 12.9477 72.9128 13.1286 72.9128 13.3517V16.6814H67.751V16.1165C67.751 14.7409 68.3606 14.4093 69.4925 14.4093C69.6852 14.4093 69.8281 14.4093 69.9675 14.4126C70.1979 14.4182 70.388 14.2364 70.388 14.0089V12.113C70.388 11.8974 70.2162 11.7193 69.9981 11.7093C69.6838 11.695 69.4489 11.695 69.0944 11.695C66.0221 11.695 64.517 13.2057 64.517 15.9076V16.6814H63.135C62.9091 16.6814 62.7259 16.8623 62.7259 17.0854V18.9671C62.7259 19.1902 62.9091 19.371 63.135 19.371H64.517V29.1857C64.517 29.4088 64.7002 29.5897 64.9262 29.5897H67.3419C67.5679 29.5897 67.751 29.4088 67.751 29.1857V19.371H72.9128V26.2858C72.9128 28.9266 74.281 29.7371 76.8434 29.7371C77.5107 29.7371 78.1287 29.6884 78.6506 29.6107C78.8497 29.5812 78.9953 29.4103 78.9953 29.2116V27.3347C78.9953 27.0982 78.7902 26.9122 78.5515 26.9323Z" fill="black"/>
<path d="M86.6695 16.4357C83.0002 16.4357 80.3757 19.3467 80.3757 23.1416C80.3757 27.1333 83.0003 29.8599 86.7939 29.8599C89.2505 29.8599 91.2892 28.6757 92.2992 26.6139C92.4035 26.401 92.2936 26.1453 92.0687 26.0639L90.1098 25.3549C89.9097 25.2824 89.6849 25.3733 89.5981 25.5656C89.1179 26.6304 88.0796 27.1947 86.8064 27.1947C84.9905 27.1947 83.7092 25.9296 83.4729 23.8417H92.1438C92.3698 23.8417 92.5529 23.6608 92.5529 23.4377V22.8469C92.5529 19.2729 90.5006 16.4357 86.6695 16.4357ZM83.6097 21.5696C84.045 19.9116 85.177 19.0519 86.6447 19.0519C88.4358 19.0519 89.2941 20.2186 89.319 21.5696H83.6097Z" fill="black"/>
<path d="M102.063 16.6232C101.924 16.6139 101.771 16.6077 101.595 16.6077C99.9535 16.6077 98.635 17.3815 98.0629 18.5483V17.0854C98.0629 16.8623 97.8797 16.6814 97.6537 16.6814H95.2381C95.0121 16.6814 94.8289 16.8623 94.8289 17.0854V29.1857C94.8289 29.4088 95.0121 29.5897 95.2381 29.5897H97.6537C97.8797 29.5897 98.0629 29.4088 98.0629 29.1857V22.9207C98.0629 20.8941 99.481 19.7396 101.334 19.7396C101.584 19.7396 101.79 19.7482 101.997 19.7653C102.236 19.7851 102.441 19.6 102.441 19.363V17.0261C102.441 16.8146 102.276 16.6375 102.063 16.6232Z" fill="black"/>
<path d="M111.496 16.4357C109.83 16.4357 108.586 17.0867 107.79 18.0324V17.0854C107.79 16.8623 107.606 16.6814 107.38 16.6814H104.965C104.739 16.6814 104.556 16.8623 104.556 17.0854V33.5826C104.556 33.8057 104.739 33.9866 104.965 33.9866H107.38C107.606 33.9866 107.79 33.8057 107.79 33.5826V28.251C108.586 29.2089 109.83 29.8599 111.496 29.8599C115.128 29.8599 117.218 26.8139 117.218 23.1416C117.218 19.4817 115.128 16.4357 111.496 16.4357ZM110.787 27.0965C109.033 27.0965 107.715 25.8068 107.715 23.5224V22.7855C107.715 20.4642 109.033 19.1992 110.787 19.1992C112.852 19.1992 113.959 20.8081 113.959 23.1416C113.959 25.4875 112.852 27.0965 110.787 27.0965Z" fill="black"/>
<path d="M130.477 27.1783C129.973 27.156 129.768 26.9016 129.768 26.3227V20.9063C129.768 17.9219 127.828 16.4357 124.607 16.4357C121.821 16.4357 119.936 17.9208 119.185 19.8656C119.095 20.0995 119.235 20.3582 119.485 20.409L121.731 20.869C121.929 20.9095 122.129 20.8012 122.197 20.6138C122.558 19.6297 123.256 19.1377 124.481 19.1377C125.999 19.1377 126.608 19.8624 126.608 21.0293V21.238L123.175 21.9135C120.601 22.4048 118.623 23.4856 118.623 26.0033C118.623 28.3 120.527 29.8108 123.051 29.8108C124.755 29.8108 126.099 29.2826 126.933 28.3738C127.412 29.3807 128.545 29.8205 130.506 29.6314C130.715 29.6113 130.875 29.4364 130.875 29.2288V27.5816C130.875 27.3633 130.699 27.1881 130.477 27.1783ZM126.608 25.0208C126.608 26.5315 125.154 27.3298 123.624 27.3298C122.529 27.3298 121.82 26.7894 121.82 25.8437C121.82 24.7505 122.716 24.3699 123.922 24.1243L126.608 23.5716V25.0208Z" fill="black"/>
<path d="M143.432 16.6814H141.019C140.844 16.6814 140.688 16.7918 140.632 16.9557L137.716 25.4506L134.726 16.9529C134.67 16.7903 134.515 16.6814 134.34 16.6814H131.851C131.565 16.6814 131.368 16.9634 131.469 17.2275L135.987 29.0984L135.527 30.216C135.128 31.1985 134.643 31.4565 133.686 31.4565C133.469 31.4565 133.304 31.4488 133.131 31.4354C132.894 31.4171 132.69 31.6028 132.69 31.8381V33.6608C132.69 33.8687 132.851 34.0434 133.06 34.0629C133.305 34.0857 133.543 34.0972 133.984 34.0972C136.783 34.0972 137.952 32.6847 138.748 30.56L143.815 17.2274C143.916 16.9633 143.718 16.6814 143.432 16.6814Z" fill="black"/>
</svg>
