<svg width="28" height="28" viewBox="0 0 28 28" fill="none" xmlns="http://www.w3.org/2000/svg">
<path d="M14 24.5L23.4866 19.5902C23.8547 19.3997 24.0388 19.3044 24.1731 19.1641C24.292 19.04 24.3822 18.8912 24.4375 18.728C24.5 18.5436 24.5 18.3361 24.5 17.9213C24.5 15.9272 24.5 11.7465 24.5 8.78818M14 24.5L4.51336 19.5902C4.14526 19.3997 3.9612 19.3044 3.82685 19.1641C3.70803 19.04 3.61778 18.8912 3.5625 18.728C3.5 18.5436 3.5 18.3352 3.5 17.9184V8.78818M14 24.5C14 24.5 14 18.056 14 13.927M24.5 8.78818C20.3995 10.795 18.1005 11.9201 14 13.927M24.5 8.78818C22.4497 7.72708 21.3003 7.13216 19.25 6.07105M3.5 8.78818L13.1467 3.79554C13.4592 3.63379 13.6155 3.55292 13.7798 3.52112C13.9253 3.49296 14.0747 3.49296 14.2202 3.52112C14.3845 3.55292 14.5404 3.6336 14.8522 3.79496C15.9439 4.35998 17.8608 5.35208 19.25 6.07105M3.5 8.78818C3.5 8.78818 6.69975 10.3542 8.75 11.3576M14 13.927C11.9497 12.9235 10.8003 12.361 8.75 11.3576M8.75 11.3576C12.8505 9.29305 15.1495 8.13556 19.25 6.07105M8.75 11.3576C8.75 12.361 8.75 12.9235 8.75 13.927" stroke="#111111" stroke-width="1.5" stroke-linecap="round" stroke-linejoin="round"/>
</svg>
