<svg width="22" height="22" viewBox="0 0 22 22" fill="none" xmlns="http://www.w3.org/2000/svg">
<path d="M9.625 9.08276V12.9186C9.625 13.125 9.79431 13.2923 10.0031 13.2923C10.0772 13.2923 10.1498 13.2708 10.2116 13.2304L13.122 11.329C13.2962 11.2152 13.3441 10.9833 13.229 10.8111C13.2014 10.7699 13.1659 10.7345 13.1245 10.707L10.2141 8.7726C10.0408 8.65745 9.80586 8.70293 9.68932 8.87425C9.64741 8.9359 9.625 9.0085 9.625 9.08276Z" stroke="#111111" stroke-width="1.5" stroke-linecap="round" stroke-linejoin="round"/>
<path d="M1.83398 11.0007C1.83398 7.97581 1.83398 6.46338 3.17641 5.52368C4.51884 4.58398 6.67944 4.58398 11.0007 4.58398C15.3219 4.58398 17.4825 4.58398 18.8249 5.52368C20.1673 6.46338 20.1673 7.97581 20.1673 11.0007C20.1673 14.0255 20.1673 15.5379 18.8249 16.4776C17.4825 17.4173 15.3219 17.4173 11.0007 17.4173C6.67944 17.4173 4.51884 17.4173 3.17641 16.4776C1.83398 15.5379 1.83398 14.0255 1.83398 11.0007Z" stroke="#111111" stroke-width="1.5" stroke-linecap="round" stroke-linejoin="round"/>
</svg>
