<svg width="22" height="22" viewBox="0 0 22 22" fill="none" xmlns="http://www.w3.org/2000/svg">
<path d="M2.75 10.9993C2.75 7.11026 2.75 6.08238 3.95818 4.8742C5.16637 3.66602 7.11091 3.66602 11 3.66602C14.8891 3.66602 16.8336 3.66602 18.0418 4.8742C19.25 6.08238 19.25 7.11026 19.25 10.9993C19.25 14.8884 19.25 16.833 18.0418 18.0412C16.8336 19.2493 14.8891 19.2493 11 19.2493C7.11091 19.2493 5.16637 19.2493 3.95818 18.0412C2.75 16.833 2.75 14.8884 2.75 10.9993Z" stroke="#111111" stroke-width="1.5" stroke-linecap="round" stroke-linejoin="round"/>
<path d="M15.125 4.58333V2.75" stroke="#111111" stroke-width="1.5" stroke-linecap="round" stroke-linejoin="round"/>
<path d="M6.875 4.58333V2.75" stroke="#111111" stroke-width="1.5" stroke-linecap="round" stroke-linejoin="round"/>
<path d="M2.97852 7.33398H19.0202" stroke="#111111" stroke-width="1.5" stroke-linecap="round" stroke-linejoin="round"/>
</svg>
