<svg width="33" height="24" viewBox="0 0 33 24" fill="none" xmlns="http://www.w3.org/2000/svg"><g clip-path="url(#a)" fill-rule="evenodd" clip-rule="evenodd" fill="#664117"><path d="M8.107 3.333c-2.91 0-5.292 2.11-5.412 4.743A6.371 6.371 0 0 1 3.78 7.98c.18 0 .359.006.536.026l7.806.658V3.333H8.107zM13.605.668c-.82 0-1.482.638-1.482 1.42v1.277h2.007v5.796l9.442.837V5.749c-.005-1.315-1.113-2.38-2.48-2.384h-4.246V2.088c0-.782-.663-1.42-1.479-1.42h-1.762zM18.31 14.347a1 1 0 0 1 1.004.996 1 1 0 0 1-1.004.999h-1.641a1 1 0 0 1-1.002-1 1 1 0 0 1 1.002-.995h1.64zM3.69 10C1.77 10 .142 11.48.012 13.421h2.254a1 1 0 0 1 1.005.998 1 1 0 0 1-1.005 1H.002v5.912h3.235c.05-2.064 1.754-3.714 3.834-3.714 2.083 0 3.783 1.65 3.838 3.714h9.89c.056-2.061 1.756-3.704 3.834-3.704 2.078 0 3.776 1.643 3.837 3.704h3.855v-4.067H29.76c-1.615-.003-2.923-1.3-2.923-2.9v-2.245L4.035 10.016A4.336 4.336 0 0 0 3.691 10z"/><path d="M28.959 12.668v1.851c0 .449.393.81.884.812h2.481c-.097-1.376-1.264-2.482-2.757-2.608l-.608-.055zM7.137 20c-.656 0-1.247.407-1.495 1.026a1.695 1.695 0 0 0 .35 1.817c.31.317.725.488 1.145.488.21 0 .419-.042.62-.126.602-.256.996-.866.996-1.54 0-.918-.724-1.665-1.616-1.665zM24.644 20c-.654 0-1.242.407-1.492 1.026a1.699 1.699 0 0 0 .35 1.817c.31.317.724.488 1.144.488.21 0 .42-.042.62-.126.605-.256.997-.866.997-1.54 0-.918-.722-1.665-1.619-1.665z"/></g><defs><clipPath id="a"><path fill="#fff" d="M0 0h33v24H0z"/></clipPath></defs></svg>