<svg width="28" height="28" viewBox="0 0 28 28" fill="none" xmlns="http://www.w3.org/2000/svg">
<path d="M14 24.5C19.799 24.5 24.5 19.799 24.5 14C24.5 8.20101 19.799 3.5 14 3.5M14 24.5C8.20101 24.5 3.5 19.799 3.5 14C3.5 8.20101 8.20101 3.5 14 3.5M14 24.5C17.2217 24.5 18.5982 18.4765 18.5982 14C18.5982 9.52354 17.2217 3.5 14 3.5M14 24.5C10.7783 24.5 9.4021 18.4764 9.4021 14C9.4021 9.52359 10.7783 3.5 14 3.5M4.08319 10.5C11.8286 10.5 16.1711 10.5 23.9165 10.5M4.08319 17.5C11.8286 17.5 16.1711 17.5 23.9165 17.5" stroke="#111111" stroke-width="1.5" stroke-linecap="round" stroke-linejoin="round"/>
</svg>
