<svg xmlns="http://www.w3.org/2000/svg" width="31" height="31" viewBox="0 0 31 31" fill="none"><path opacity="0.2" fill-rule="evenodd" clip-rule="evenodd" d="M27.0007 16.5927C27.0057 18.548 26.5489 20.4769 25.6673 22.2223C23.5354 26.4879 19.1768 29.1834 14.408 29.1852C12.4527 29.1903 10.5238 28.7335 8.77842 27.8519L0.333984 30.6667L3.14879 22.2223C2.26721 20.4769 1.81037 18.548 1.81546 16.5927C1.81731 11.8239 4.51275 7.46532 8.77842 5.33341C10.5238 4.45183 12.4527 3.99499 14.408 4.00004H15.1488C21.5426 4.35282 26.6479 9.45814 27.0007 15.8519V16.5927Z" fill="#FD4621"></path><path fill-rule="evenodd" clip-rule="evenodd" d="M29.6667 13.9266C29.6717 15.882 29.2149 17.8109 28.3333 19.5563C26.2014 23.8219 21.8428 26.5174 17.0741 26.5192C15.1187 26.5243 13.1898 26.0675 11.4444 25.1859L3 28.0007L5.81481 19.5563C4.93323 17.8109 4.47638 15.882 4.48148 13.9266C4.48332 9.1579 7.17877 4.79931 11.4444 2.6674C13.1898 1.78582 15.1187 1.32897 17.0741 1.33403H17.8148C24.2086 1.68681 29.3139 6.79212 29.6667 13.1859V13.9266Z" stroke="#111111" stroke-width="1.25" stroke-linecap="round" stroke-linejoin="round"></path><path d="M11.666 14H12.3327" stroke="#111111" stroke-width="2" stroke-linecap="round" stroke-linejoin="round"></path><path d="M16.666 14H17.3327" stroke="#111111" stroke-width="2" stroke-linecap="round" stroke-linejoin="round"></path><path d="M21.666 14H22.3327" stroke="#111111" stroke-width="2" stroke-linecap="round" stroke-linejoin="round"></path></svg>