<svg xmlns="http://www.w3.org/2000/svg" width="30" height="30" viewBox="0 0 30 30" fill="none"><path opacity="0.2" fill-rule="evenodd" clip-rule="evenodd" d="M17.9834 7.09681C20.4049 7.59351 22.2982 9.58407 22.7707 12.1299L17.9834 7.09681ZM17.9834 2C23.0489 2.59163 27.0495 6.79233 27.6186 12.1172L17.9834 2ZM25.9771 27.3129C25.98 28.0664 25.6805 28.7864 25.1523 29.2958C24.6241 29.8052 23.9161 30.057 23.2022 29.9891C19.2854 29.5417 15.523 28.1347 12.2174 25.8811C9.14189 23.8266 6.53443 21.0854 4.58015 17.8522C2.42898 14.3613 1.09026 10.3868 0.67245 6.2506C0.608136 5.50241 0.845906 4.76026 1.32768 4.20542C1.80945 3.65059 2.49086 3.33417 3.20546 3.3332H7.02406C8.30185 3.32024 9.39096 4.30491 9.5698 5.63506C9.73097 6.91976 10.0299 8.18116 10.4608 9.39522C10.8105 10.3732 10.5868 11.4758 9.88801 12.2187L9.21442 12.9188C11.0264 16.2689 13.6649 19.0427 16.8516 20.9476L17.5252 20.2475C18.2319 19.5128 19.2807 19.2777 20.211 19.6453C21.3658 20.0984 22.5657 20.4126 23.7877 20.582C25.0677 20.7719 26.0091 21.94 25.9771 23.2985V27.3129Z" fill="#FD4621"></path><path d="M19.0068 5.76282C21.4283 6.25953 23.3216 8.25008 23.794 10.7959M19.0068 0.666016C24.0723 1.25765 28.0728 5.45834 28.6419 10.7832M27.43 20.9513V24.7739C27.4327 25.4915 27.1476 26.177 26.6447 26.6621C26.1418 27.1472 25.4676 27.3869 24.7879 27.3223C21.0584 26.8963 17.4761 25.5565 14.3286 23.4105C11.4002 21.4542 8.91754 18.844 7.05676 15.7653C5.00851 12.4412 3.73384 8.65653 3.33602 4.71798C3.27478 4.00554 3.50117 3.29884 3.9599 2.77051C4.41862 2.24219 5.06743 1.94089 5.74784 1.94009H9.38374C10.6004 1.92763 11.6374 2.86525 11.8077 4.13185C11.9611 5.35516 12.2457 6.5563 12.6561 7.71235C12.989 8.64364 12.7761 9.69349 12.1107 10.4009L10.5715 12.0192C12.2968 15.2092 14.8091 17.8505 17.8433 19.6644L19.3825 18.0461C20.0554 17.3466 21.0539 17.1227 21.9397 17.4727C23.0393 17.9041 24.1818 18.2033 25.3454 18.3647C26.5641 18.5454 27.4605 19.6577 27.43 20.9513Z" stroke="#111111" stroke-width="1.25" stroke-linecap="round" stroke-linejoin="round"></path></svg>