<svg xmlns="http://www.w3.org/2000/svg" width="29" height="29" viewBox="0 0 29 29" fill="none"><path opacity="0.2" d="M21.59 6H2.9363C1.46456 6 0.271484 7.19391 0.271484 8.66667V26C0.271484 27.4728 1.46456 28.6667 2.9363 28.6667H21.59C23.0618 28.6667 24.2548 27.4728 24.2548 26V8.66667C24.2548 7.19391 23.0618 6 21.59 6Z" fill="#FD4621"></path><path d="M25.5881 5.33398H6.93435C5.46261 5.33398 4.26953 6.52789 4.26953 8.00065V24.0007C4.26953 25.4734 5.46261 26.6673 6.93435 26.6673H25.5881C27.0598 26.6673 28.2529 25.4734 28.2529 24.0007V8.00065C28.2529 6.52789 27.0598 5.33398 25.5881 5.33398Z" stroke="#111111" stroke-width="1.25" stroke-linecap="round" stroke-linejoin="round"></path><path d="M4.26953 12H28.2529" stroke="#111111" stroke-width="1.25" stroke-linecap="round" stroke-linejoin="round"></path><path d="M21.5918 1.33398V8.00065" stroke="#111111" stroke-width="1.25" stroke-linecap="round" stroke-linejoin="round"></path><path d="M10.9316 1.33398V8.00065" stroke="#111111" stroke-width="1.25" stroke-linecap="round" stroke-linejoin="round"></path></svg>