<svg width="98" height="40" viewBox="0 0 98 40" fill="none" xmlns="http://www.w3.org/2000/svg">
<path d="M1.23267 19.9672C1.23267 11.8883 1.23267 7.81609 3.21198 4.92611C4.0037 3.74384 4.99336 2.75862 6.18094 1.97044C9.08393 0 13.1745 0 21.2897 0H76.6444C84.8255 0 88.9161 0 91.8191 1.97044C92.9407 2.75862 93.9304 3.74384 94.7221 4.92611C96.7014 7.81609 96.7014 11.8883 96.7014 19.9672C96.7014 28.1117 96.7014 32.1839 94.7221 35.0739C93.9304 36.2562 92.9407 37.2414 91.8191 38.0296C88.9161 40 84.8255 40 76.6444 40H21.2897C13.1745 40 9.08393 40 6.18094 38.0296C4.99336 37.2414 4.0037 36.2562 3.21198 35.0739C1.23267 32.1839 1.23267 28.1117 1.23267 19.9672Z" fill="#FFA8CD"/>
<path d="M78.1619 25.5501C76.5124 25.5501 75.1929 24.1708 75.1929 22.5287C75.1929 20.821 76.5124 19.5074 78.1619 19.5074C79.8113 19.5074 81.1308 20.821 81.1308 22.5287C81.1308 24.1708 79.8113 25.5501 78.1619 25.5501ZM77.3701 28.7685C78.7557 28.7685 80.603 28.243 81.5927 26.1412H81.6586C81.2628 27.3235 81.2628 27.9803 81.2628 28.1773V28.4401H84.8255V16.6174H81.2628V16.8801C81.2628 17.0115 81.2628 17.734 81.6586 18.8506L81.5927 18.9163C81.2282 18.1121 80.6326 17.4335 79.8811 16.9659C79.1297 16.4984 78.2559 16.2628 77.3701 16.289C73.9393 16.289 71.5642 18.9819 71.5642 22.5287C71.5642 26.0755 73.9393 28.7685 77.3701 28.7685ZM65.2963 16.289C63.7129 16.289 62.3934 16.8145 61.4037 18.9163L61.2717 18.8506C61.7336 17.734 61.7336 17.0115 61.7336 16.8801V16.6174H58.1708V28.4401H61.7996V22.2003C61.7996 20.5583 62.7892 19.5074 64.3067 19.5074C65.8901 19.5074 66.6159 20.4269 66.6159 22.2003V28.4401H70.3106V20.8867C70.3106 18.1938 68.1993 16.289 65.2963 16.289ZM52.8267 18.9163L52.7607 18.8506C53.1566 17.734 53.1566 17.0115 53.1566 16.8801V16.6174H49.5938V28.4401H53.2885V22.7258C53.2885 21.0837 54.2122 20.0328 55.6637 20.0328L56.7193 20.2299V16.6174C55.0699 16.2233 53.6184 16.8801 52.8267 18.9163ZM41.1488 25.5501C39.4993 25.5501 38.1798 24.1708 38.1798 22.5287C38.1798 20.821 39.4993 19.5074 41.1488 19.5074C42.7982 19.5074 44.1177 20.821 44.1177 22.5287C44.1177 24.1708 42.7982 25.5501 41.1488 25.5501ZM40.2911 28.7685C41.7425 28.7685 43.5239 28.243 44.5796 26.1412H44.6455C44.1837 27.3235 44.1837 27.9803 44.1837 28.1773V28.4401H47.8124V16.6174H44.1837V16.8801C44.1837 17.0115 44.1837 17.734 44.6455 18.8506L44.5796 18.9163C44.2108 18.1015 43.605 17.4156 42.8405 16.9472C42.0759 16.4788 41.1879 16.2495 40.2911 16.289C36.9262 16.289 34.4851 18.9819 34.4851 22.5287C34.4851 26.0755 36.9262 28.7685 40.2911 28.7685ZM29.4048 28.4401H33.0996V11.2972H29.4048V28.4401ZM26.6998 11.2972H22.9391C22.9391 14.3842 21.0917 17.0772 18.1888 19.0476L17.0671 19.8358V11.2972H13.1745V28.4401H17.0671V19.9672L23.5329 28.4401H28.2832L22.0814 20.2956C24.9184 18.2594 26.6998 15.1067 26.6998 11.2972Z" fill="#0B051D"/>
</svg>
