<svg width="22" height="22" viewBox="0 0 22 22" fill="none" xmlns="http://www.w3.org/2000/svg">
<path d="M5.95898 7.33333C5.95898 8.34586 6.7798 9.16667 7.79232 9.16667C8.80484 9.16667 9.62565 8.34586 9.62565 7.33333C9.62565 6.32081 8.80484 5.5 7.79232 5.5C6.7798 5.5 5.95898 6.32081 5.95898 7.33333Z" stroke="#111111" stroke-width="1.5" stroke-linecap="round" stroke-linejoin="round"/>
<path d="M19.1826 9.15789C13.1224 8.32594 7.89733 12.825 8.24923 18.7922" stroke="#111111" stroke-width="1.5" stroke-linecap="round" stroke-linejoin="round"/>
<path d="M2.75 11.9762C5.29775 11.6234 7.58528 12.8551 8.8216 14.8181" stroke="#111111" stroke-width="1.5" stroke-linecap="round" stroke-linejoin="round"/>
<path d="M2.75 11C2.75 7.11091 2.75 5.16637 3.95818 3.95818C5.16637 2.75 7.11091 2.75 11 2.75C14.8891 2.75 16.8336 2.75 18.0418 3.95818C19.25 5.16637 19.25 7.11091 19.25 11C19.25 14.8891 19.25 16.8336 18.0418 18.0418C16.8336 19.25 14.8891 19.25 11 19.25C7.11091 19.25 5.16637 19.25 3.95818 18.0418C2.75 16.8336 2.75 14.8891 2.75 11Z" stroke="#111111" stroke-width="1.5" stroke-linecap="round" stroke-linejoin="round"/>
</svg>
