<svg width="20" height="20" viewBox="0 0 20 20" fill="none" xmlns="http://www.w3.org/2000/svg">
<path d="M10.4666 17.3506C10.1872 17.5498 9.81276 17.5498 9.53341 17.3506C5.50948 14.4811 1.23798 8.58092 5.55558 4.31773C6.73432 3.15386 8.33302 2.5 10 2.5C11.667 2.5 13.2657 3.15386 14.4444 4.31773C18.762 8.58092 14.4905 14.4811 10.4666 17.3506Z" stroke="#FBFBFB" stroke-width="1.5" stroke-linecap="round" stroke-linejoin="round"/>
<path d="M10.0007 9.99935C10.9211 9.99935 11.6673 9.25316 11.6673 8.33268C11.6673 7.41221 10.9211 6.66602 10.0007 6.66602C9.08018 6.66602 8.33398 7.41221 8.33398 8.33268C8.33398 9.25316 9.08018 9.99935 10.0007 9.99935Z" stroke="#FBFBFB" stroke-width="1.5" stroke-linecap="round" stroke-linejoin="round"/>
</svg>
