<svg width="122" height="32" viewBox="0 0 122 32" fill="none" xmlns="http://www.w3.org/2000/svg"><g clip-path="url(#a)"><path d="M29.391 31.2c-8.785 1.067-17.73 1.067-26.835 0a2.036 2.036 0 0 1-1.757-1.76 113.483 113.483 0 0 1 0-26.88A2.036 2.036 0 0 1 2.556.8a113.368 113.368 0 0 1 26.888 0c.905.107 1.598.8 1.757 1.707 1.065 8.8 1.065 17.76 0 26.933-.16.907-.905 1.653-1.81 1.76z" fill="url(#b)"/><path fill-rule="evenodd" clip-rule="evenodd" d="M10.96 8.13a.75.75 0 0 1 .368-1.264l4.767-1.045a.75.75 0 0 1 .893.893l-1.046 4.767a.75.75 0 0 1-1.262.37l-3.722-3.722.001.001zm6.736 18.465a3.1 3.1 0 1 0 0-6.2 3.1 3.1 0 0 0 0 6.2zm-6.29-15.192a1 1 0 0 0-1.414 0L7.69 13.705a4.246 4.246 0 0 0 0 6.005l.004.003a4.253 4.253 0 0 0 6.01-.003l6.005-6.005c.88-.88 2.305-.88 3.185-.002.878.876.88 2.298.003 3.176l-.002.001-1.77 1.77a1 1 0 0 0 1.414 1.415l1.77-1.77.004-.004a4.246 4.246 0 0 0-3.013-7.246 4.253 4.253 0 0 0-3.004 1.245l-6.006 6.005a2.251 2.251 0 0 1-3.842-1.587c0-.596.236-1.167.657-1.588l2.302-2.303a1 1 0 0 0 0-1.414z" fill="#fff"/></g><path d="M50.53 26.75c-1.291 0-2.314-.272-3.068-.817-.754-.524-1.303-1.257-1.647-2.2-.345-.943-.571-2.023-.679-3.238a54.347 54.347 0 0 1-.129-3.835c0-1.383.054-2.819.162-4.306-1.443.188-2.832.43-4.168.723L40 8.14a38.944 38.944 0 0 1 5.718-1.005c.15-1.07.312-2.19.484-3.364.172-1.194.366-2.452.582-3.772l5.556.472a58.667 58.667 0 0 0-.679 3.269 103.262 103.262 0 0 0-.516 3.112c1.206 0 2.336.031 3.391.094 1.077.042 2.068.126 2.972.251l-.646 4.936a27.808 27.808 0 0 0-2.358-.158 46.135 46.135 0 0 0-2.423-.062c-.495 0-.99.01-1.486.031-.129 1.53-.215 2.84-.258 3.93-.022 1.089-.032 1.864-.032 2.325 0 1.153.064 1.98.194 2.484.15.503.387.754.71.754.366 0 .775-.115 1.228-.346a6.306 6.306 0 0 0 1.324-1.006c.453-.419.83-.87 1.13-1.351l2.488 5.06c-2.132 1.97-4.415 2.955-6.848 2.955zM69.393 26.845c-1.723 0-3.23-.273-4.522-.817-1.27-.545-2.326-1.29-3.166-2.232a9.526 9.526 0 0 1-1.873-3.3 12.325 12.325 0 0 1-.614-3.899c0-1.383.247-2.661.743-3.835a9.889 9.889 0 0 1 2.1-3.112 9.595 9.595 0 0 1 3.165-2.043c1.206-.503 2.52-.754 3.941-.754 1.486 0 2.864.251 4.135.754 1.27.503 2.38 1.205 3.327 2.106a9.42 9.42 0 0 1 2.197 3.175c.538 1.216.807 2.536.807 3.96 0 3.165-.893 5.627-2.68 7.388-1.788 1.74-4.308 2.609-7.56 2.609zm-.032-5.092c1.572 0 2.767-.43 3.586-1.29.84-.858 1.26-2.095 1.26-3.709 0-1.446-.453-2.609-1.357-3.489-.905-.88-2.09-1.32-3.554-1.32-.883 0-1.69.23-2.422.691a5.131 5.131 0 0 0-1.777 1.792c-.43.734-.646 1.551-.646 2.452 0 .797.161 1.572.484 2.326.345.755.883 1.373 1.616 1.855.732.46 1.669.692 2.81.692zM89.66 24.424c-1.357 0-2.51-.199-3.457-.597-.947-.398-1.733-.912-2.358-1.54a8.133 8.133 0 0 1-1.421-2.075 9.398 9.398 0 0 1-.71-2.169c-.13-.712-.195-1.33-.195-1.854 0-1.006.14-2.044.42-3.112a9.068 9.068 0 0 1 1.486-2.987c.71-.922 1.67-1.666 2.875-2.231 1.228-.566 2.768-.85 4.62-.85.56 0 1.076.043 1.55.127a8.1 8.1 0 0 1 1.325.345V6.444h5.588c-.021 1.257-.043 2.682-.064 4.275a394.712 394.712 0 0 0-.033 5.344V19.3c.022 1.11.032 2.326.032 3.646 0 1.802-.247 3.28-.742 4.432-.496 1.153-1.131 2.043-1.906 2.672-.776.629-1.583 1.08-2.423 1.352-.819.293-1.583.46-2.294.503a18.68 18.68 0 0 1-1.55.094c-.84 0-1.766-.094-2.778-.283a14.971 14.971 0 0 1-3.037-.849 11.656 11.656 0 0 1-2.778-1.477l2.358-4.778c.539.44 1.077.838 1.615 1.195.539.377 1.163.67 1.874.88.71.23 1.594.345 2.649.345 1.077 0 1.874-.188 2.39-.565.517-.357.851-.839 1.002-1.446.172-.587.269-1.237.29-1.95-.732.525-1.475.88-2.228 1.07a8.685 8.685 0 0 1-2.1.282zm-3.295-8.675c0 1.194.334 2.137 1.001 2.829.69.691 1.626 1.037 2.81 1.037 1.659 0 2.897-.933 3.716-2.798 0-.67-.011-1.351-.033-2.043 0-.712-.01-1.404-.032-2.075-.861-.544-1.852-.817-2.972-.817-1.378 0-2.477.356-3.295 1.069-.797.691-1.195 1.624-1.195 2.797zM111.76 26.845c-1.723 0-3.23-.273-4.523-.817-1.27-.545-2.325-1.29-3.165-2.232a9.524 9.524 0 0 1-1.874-3.3 12.33 12.33 0 0 1-.614-3.899c0-1.383.248-2.661.743-3.835a9.893 9.893 0 0 1 2.1-3.112 9.59 9.59 0 0 1 3.166-2.043c1.206-.503 2.519-.754 3.941-.754 1.486 0 2.864.251 4.135.754a10.255 10.255 0 0 1 3.327 2.106 9.415 9.415 0 0 1 2.196 3.175c.539 1.216.808 2.536.808 3.96 0 3.165-.894 5.627-2.681 7.388-1.788 1.74-4.307 2.609-7.559 2.609zm-.032-5.092c1.572 0 2.767-.43 3.585-1.29.84-.858 1.26-2.095 1.26-3.709 0-1.446-.452-2.609-1.357-3.489-.904-.88-2.089-1.32-3.553-1.32-.883 0-1.691.23-2.423.691a5.14 5.14 0 0 0-1.777 1.792 4.759 4.759 0 0 0-.646 2.452c0 .797.162 1.572.485 2.326.345.755.883 1.373 1.615 1.855.732.46 1.669.692 2.811.692z" fill="#111"/><defs><linearGradient id="b" x1="5.32" y1="5.322" x2="26.79" y2="26.756" gradientUnits="userSpaceOnUse"><stop stop-color="#FF3209"/><stop offset="1" stop-color="#FF5735"/></linearGradient><clipPath id="a"><path fill="#fff" d="M0 0h32v32H0z"/></clipPath></defs></svg>