<svg width="34" height="22" viewBox="0 0 34 22" fill="none" xmlns="http://www.w3.org/2000/svg"><path fill-rule="evenodd" clip-rule="evenodd" d="M24.664 5.082a.97.97 0 0 1 .925.714l.083.29a.993.993 0 0 1-.66 1.224.935.935 0 0 1-.268.039.962.962 0 0 1-.923-.714l-.085-.293a.991.991 0 0 1 .661-1.223 1 1 0 0 1 .267-.037zm-2.99.88a.97.97 0 0 1 .928.714l.084.293a.998.998 0 0 1-.661 1.223c-.09.025-.18.038-.267.038a.969.969 0 0 1-.926-.715l-.082-.293a.986.986 0 0 1 .657-1.22.91.91 0 0 1 .266-.04zm-2.987.88a.97.97 0 0 1 .927.716l.082.295a.993.993 0 0 1-.662 1.22.953.953 0 0 1-.266.038.972.972 0 0 1-.927-.715l-.082-.293a.991.991 0 0 1 .66-1.22.906.906 0 0 1 .268-.04zm-2.983.9c.412 0 .793.272.921.697l.083.29c.145.528-.148 1.074-.66 1.226a.976.976 0 0 1-.266.039.967.967 0 0 1-.926-.715l-.085-.295a.988.988 0 0 1 .664-1.203c.09-.025.18-.04.27-.04zm-2.988.882c.415 0 .795.271.924.697l.077.291a.988.988 0 0 1-.657 1.223.913.913 0 0 1-.269.04.968.968 0 0 1-.925-.715l-.083-.295a.988.988 0 0 1 .667-1.204 1 1 0 0 1 .266-.037zm-2.993.864c.42 0 .802.283.926.715l.082.29a.992.992 0 0 1-.661 1.223.895.895 0 0 1-.267.04.968.968 0 0 1-.925-.715l-.083-.292a.993.993 0 0 1 .661-1.224.982.982 0 0 1 .267-.037zm2.41-9.485c-.09 0-.18.012-.267.037l-3.272.967c-.708.209-.936 1.122-.41 1.65L11.72 6.22 5.61 8.021 4.54 5.823A2.29 2.29 0 0 0 2.493 4.52c-.179 0-.361.023-.54.068C.726 4.91 0 6.21.348 7.458l1.881 6.684c.337 1.192 1.396 1.966 2.547 1.966.242 0 .492-.035.737-.11l8.95-2.632-1.13 6.796c-.05.324.056.657.29.885.17.169.399.266.636.266.158-.008.313-.037.46-.087l.448-.13 1.358-.401 1.97-.576c.526-.156.647-.62.69-.796l2.034-7.952 10.036-2.963a2.694 2.694 0 0 0 1.85-2.014 2.75 2.75 0 0 0-.835-2.63l-1.93-1.734a2.584 2.584 0 0 0-2.483-.57l-9.837 2.9L12.718.208a.937.937 0 0 0-.586-.205z" fill="#664117"/></svg>