<svg width="36" height="36" viewBox="0 0 36 36" fill="none" xmlns="http://www.w3.org/2000/svg">
<g clip-path="url(#clip0_1_11961)">
<path fill-rule="evenodd" clip-rule="evenodd" d="M8.21991 14.4806L6.38858 15.4442C4.6148 16.379 3.30121 18.0026 2.75789 19.9331C2.02599 22.5347 0.942554 26.3857 0.250618 28.8435C-0.219182 30.5118 0.416811 32.2936 1.83425 33.2908C1.83585 33.2908 1.83585 33.2908 1.83745 33.2924C2.99599 34.1058 4.38629 34.3535 5.67267 34.0913V35.1412C5.67267 35.4944 5.96031 35.7804 6.31188 35.7804H22.2263C22.5795 35.7804 22.8655 35.4944 22.8655 35.1412V28.6211L31.0809 32.2439C31.1001 32.2534 31.1193 32.2614 31.1384 32.2678C32.11 32.7105 33.2734 32.6849 34.2562 32.0984L34.2594 32.0968C35.044 31.6302 35.6033 30.8632 35.8126 29.9747C36.022 29.0862 35.8606 28.1514 35.3652 27.3827L28.906 17.344C28.5353 16.7688 28.0095 16.3501 27.4183 16.1104V11.1902C27.4183 10.8371 27.1306 10.551 26.7791 10.551H22.8767C22.8847 10.4088 22.8879 10.2666 22.8879 10.1212C22.8879 5.7169 19.3116 2.14062 14.9074 2.14062C10.5015 2.14062 6.92518 5.71698 6.92518 10.1212C6.92518 11.7288 7.40173 13.2262 8.21991 14.4806ZM23.4618 20.8951H16.493C16.3907 21.2722 16.2197 21.6398 15.98 21.9753C14.0975 24.6025 10.9269 29.0289 8.71373 32.1228C8.2391 32.7844 7.63029 33.2942 6.95112 33.6442V34.5023H21.5872V27.6419C21.5872 27.4245 21.6958 27.2248 21.8764 27.1049C22.0586 26.9883 22.2855 26.9707 22.4837 27.057L29.0483 29.9526L23.4618 20.8982L23.4618 20.8951ZM9.016 15.5049L6.98495 16.5756C5.52118 17.3458 4.4377 18.6866 3.98869 20.2798C3.25678 22.8798 2.17334 26.7324 1.48141 29.1886C1.16021 30.3343 1.59487 31.56 2.56967 32.244H2.57127C4.22203 33.4041 6.4992 33.0174 7.67386 31.3763L14.9418 21.2304C15.6065 20.3004 15.3956 19.0076 14.4671 18.3412L14.4655 18.3396C13.641 17.7451 12.492 17.9241 11.8863 18.7407L4.95717 28.0937C4.74783 28.3766 4.34832 28.4357 4.06388 28.2264C3.78103 28.017 3.72031 27.6159 3.93124 27.3331L10.8588 17.98C11.0426 17.7307 11.2599 17.5166 11.4964 17.3376C10.5536 16.8902 9.71273 16.2656 9.016 15.5049ZM33.6044 30.9992L33.6012 31.0008C32.628 31.5825 31.3672 31.2741 30.7711 30.3073L24.5517 20.2269C23.9668 19.2809 24.2561 18.0408 25.2005 17.4495V17.4479C26.0906 16.8918 27.2635 17.1523 27.8308 18.036C27.8324 18.036 34.29 28.0747 34.29 28.0747C34.5968 28.5509 34.6975 29.131 34.568 29.6823C34.4386 30.2336 34.0918 30.71 33.6044 30.9992ZM26.1401 15.8788V11.8295H14.5915V16.9542C14.8072 17.0436 15.015 17.1587 15.2115 17.3009L15.2131 17.3025C16.0025 17.8714 16.4723 18.7199 16.5826 19.6164H23.0017C22.9905 19.5333 22.9825 19.4502 22.9761 19.3655C22.6773 19.447 22.3641 19.4918 22.0397 19.4918C20.0677 19.4918 18.4665 17.889 18.4665 15.9186C18.4665 13.9451 20.0677 12.3439 22.0397 12.3439C24.0116 12.3439 25.6128 13.9451 25.6128 15.9186V15.9346C25.787 15.901 25.9627 15.882 26.1401 15.8788ZM24.2417 16.5612C24.2593 16.5069 24.2721 16.4525 24.2849 16.3966C24.3168 16.2416 24.3344 16.0818 24.3344 15.9188C24.3344 14.6515 23.3069 13.6224 22.0396 13.6224C20.7724 13.6224 19.7449 14.6515 19.7449 15.9188C19.7449 17.1844 20.7724 18.2135 22.0396 18.2135C22.4519 18.2135 22.837 18.1049 23.171 17.9131C23.1902 17.9035 23.2094 17.8939 23.2302 17.8843C23.4427 17.3762 23.7847 16.916 24.2417 16.5612ZM21.5954 10.5512C21.605 10.409 21.6098 10.2668 21.6098 10.1214C21.6098 6.42195 18.6055 3.41922 14.9076 3.41922C11.2082 3.41922 8.20386 6.42187 8.20386 10.1214C8.20386 13.2726 10.3819 15.919 13.3126 16.6349V11.1903C13.3126 10.8372 13.5986 10.5511 13.9518 10.5511L21.5954 10.5512Z" fill="#111111"/>
<path fill-rule="evenodd" clip-rule="evenodd" d="M25.7527 5.27527V0.858312C25.7527 0.505152 25.465 0.220703 25.1119 0.220703C24.7587 0.220703 24.4727 0.505148 24.4727 0.858312V5.27527C24.4727 5.62843 24.7587 5.91288 25.1119 5.91288C25.465 5.91288 25.7527 5.62843 25.7527 5.27527Z" fill="#111111"/>
<path fill-rule="evenodd" clip-rule="evenodd" d="M28.9924 6.70692L32.1149 3.58282C32.3642 3.33353 32.3642 2.92922 32.1133 2.67996C31.864 2.43066 31.4597 2.42907 31.2105 2.67836L28.088 5.80246C27.8371 6.05175 27.8387 6.45607 28.088 6.70533C28.3388 6.95462 28.7416 6.95621 28.9924 6.70692Z" fill="#111111"/>
<path fill-rule="evenodd" clip-rule="evenodd" d="M29.6394 15.0799L33.4635 17.2884C33.7703 17.4657 34.1602 17.3587 34.336 17.0534C34.5134 16.7482 34.4095 16.3567 34.1043 16.1809L30.2786 13.9725C29.9734 13.7951 29.5835 13.9022 29.4061 14.2074C29.2304 14.5126 29.3326 14.9041 29.6394 15.0799Z" fill="#111111"/>
<path fill-rule="evenodd" clip-rule="evenodd" d="M30.9905 11.6854L35.2557 10.5428C35.5976 10.4517 35.799 10.1001 35.7079 9.75973C35.6152 9.41935 35.2669 9.21482 34.9249 9.30748L30.6597 10.4501C30.3177 10.5412 30.1164 10.8927 30.2074 11.2331C30.3001 11.5735 30.6485 11.778 30.9905 11.6854Z" fill="#111111"/>
</g>
<defs>
<clipPath id="clip0_1_11961">
<rect width="36" height="36" fill="white"/>
</clipPath>
</defs>
</svg>
