<svg width="31" height="36" viewBox="0 0 31 36" fill="none" xmlns="http://www.w3.org/2000/svg">
<path d="M23.7966 13.0277C22.4304 13.9315 20.8542 14.4674 19.2203 14.5837C19.809 13.9422 20.1983 13.1433 20.3406 12.2844C20.483 11.4254 20.3722 10.5436 20.0219 9.74658C19.6716 8.94953 19.0968 8.27168 18.3678 7.79576C17.6387 7.31983 16.7869 7.06641 15.9162 7.06641C15.0456 7.06641 14.1938 7.31983 13.4647 7.79576C12.7357 8.27168 12.1609 8.94953 11.8106 9.74658C11.4602 10.5436 11.3495 11.4254 11.4918 12.2844C11.6342 13.1433 12.0234 13.9422 12.6122 14.5837C10.9436 14.4796 9.33087 13.9434 7.93216 13.0277C7.53925 12.7566 7.06341 12.6324 6.58811 12.677C6.11281 12.7217 5.6684 12.9322 5.33284 13.2718C5.18039 13.4449 5.06799 13.6494 5.00365 13.8709C4.93932 14.0924 4.92463 14.3253 4.96063 14.5531C5.00488 14.8607 5.11571 15.1549 5.28538 15.4152C5.45505 15.6755 5.67948 15.8956 5.94301 16.0603C7.94331 17.3758 10.2629 18.1244 12.6549 18.2264V21.0209C12.6486 21.1144 12.6486 21.2082 12.6549 21.3016C12.5928 21.4337 12.5477 21.5731 12.5206 21.7165L11.0684 29.5816C10.9918 29.8289 10.9685 30.0896 11 30.3466C11.0315 30.6035 11.1172 30.8508 11.2514 31.0722C11.3856 31.2936 11.5652 31.484 11.7783 31.6309C11.9915 31.7778 12.2334 31.8778 12.4881 31.9243C12.7427 31.9708 13.0044 31.9627 13.2557 31.9007C13.507 31.8386 13.7423 31.724 13.9461 31.5643C14.1498 31.4046 14.3174 31.2035 14.4377 30.9743C14.558 30.745 14.6283 30.4929 14.644 30.2345L15.7301 24.2915C15.85 24.3005 15.9703 24.3005 16.0901 24.2915L17.1762 30.2406C17.255 30.6555 17.4749 31.0304 17.7985 31.3017C18.1221 31.5731 18.5295 31.7242 18.9518 31.7294C19.0624 31.7314 19.1729 31.7211 19.2813 31.6989C19.755 31.6099 20.1744 31.3376 20.4486 30.9412C20.7228 30.5448 20.8295 30.0563 20.7457 29.5816L19.2996 21.7165C19.2694 21.5587 19.2202 21.405 19.1532 21.2589C19.1532 21.1796 19.1532 21.1064 19.1532 21.0209V18.2203C21.5109 18.1019 23.7943 17.3562 25.7674 16.0603C26.0307 15.8947 26.2553 15.6745 26.4258 15.4144C26.5964 15.1543 26.709 14.8606 26.7559 14.5531C26.7894 14.3249 26.7729 14.0921 26.7076 13.8709C26.6423 13.6496 26.5297 13.4452 26.3776 13.2718C26.0438 12.9358 25.6028 12.7274 25.1312 12.6828C24.6597 12.6382 24.1875 12.7603 23.7966 13.0277ZM25.6271 14.4067C25.6013 14.5449 25.5466 14.6761 25.4667 14.7917C25.3868 14.9073 25.2834 15.0049 25.1633 15.0779C23.205 16.3706 20.9139 17.0679 18.5674 17.0854C18.4056 17.0854 18.2504 17.1496 18.136 17.2641C18.0215 17.3785 17.9572 17.5337 17.9572 17.6955V21.0698C17.9635 21.1632 17.9635 21.257 17.9572 21.3504C17.94 21.4912 17.9724 21.6336 18.0488 21.7531C18.0968 21.8201 18.1281 21.8975 18.1403 21.9789L19.5742 29.844C19.6041 30.0093 19.5691 30.1797 19.4766 30.3199C19.43 30.3893 19.3697 30.4484 19.2994 30.4935C19.2291 30.5387 19.1502 30.5689 19.0678 30.5823C18.9804 30.605 18.8891 30.6081 18.8005 30.5913C18.7118 30.5744 18.628 30.5382 18.5551 30.4851C18.4821 30.432 18.4219 30.3633 18.3786 30.2841C18.3354 30.2049 18.3103 30.1171 18.305 30.027L17.1396 23.5104C17.1239 23.4312 17.0926 23.3559 17.0476 23.2889C17.0025 23.2218 16.9446 23.1644 16.8772 23.1199C16.8078 23.0769 16.7305 23.0482 16.6498 23.0357C16.5691 23.0231 16.4866 23.0268 16.4074 23.0467C16.0739 23.1381 15.7219 23.1381 15.3884 23.0467C15.3099 23.0297 15.2288 23.0284 15.1497 23.0428C15.0707 23.0572 14.9952 23.0871 14.9278 23.1308C14.8603 23.1744 14.8021 23.231 14.7566 23.2972C14.711 23.3634 14.679 23.4379 14.6623 23.5165L13.442 30.027C13.4298 30.1102 13.4005 30.19 13.356 30.2613C13.3115 30.3326 13.2528 30.394 13.1834 30.4415C13.1141 30.4891 13.0357 30.5218 12.9532 30.5376C12.8706 30.5534 12.7857 30.552 12.7037 30.5335C12.6223 30.5193 12.5446 30.4887 12.4754 30.4436C12.4062 30.3985 12.3468 30.3398 12.301 30.2711C12.2519 30.2032 12.2174 30.1258 12.1996 30.0439C12.1817 29.9621 12.1809 29.8774 12.1972 29.7952L13.6311 21.9301C13.6466 21.8563 13.6755 21.7859 13.7166 21.7226C13.7873 21.6033 13.8153 21.4634 13.7959 21.326C13.7895 21.2244 13.7895 21.1225 13.7959 21.0209V17.6467C13.7959 17.4849 13.7316 17.3297 13.6172 17.2153C13.5027 17.1008 13.3475 17.0365 13.1857 17.0365C10.8228 17.0381 8.51107 16.3488 6.53487 15.0535C6.42315 14.9786 6.32735 14.8824 6.253 14.7703C6.17865 14.6583 6.12721 14.5326 6.10165 14.4006C6.09241 14.3418 6.09522 14.2817 6.1099 14.224C6.12459 14.1663 6.15084 14.1122 6.18707 14.065C6.25443 13.9943 6.33604 13.9387 6.4265 13.9018C6.51696 13.865 6.61422 13.8479 6.71182 13.8515C6.90489 13.8532 7.0934 13.9103 7.25487 14.0162C9.16623 15.2767 11.4299 15.8944 13.7166 15.7796C13.8071 15.7736 13.8952 15.7475 13.9743 15.7031C14.0535 15.6588 14.1218 15.5974 14.1742 15.5233C14.2291 15.4501 14.2901 15.3769 14.3511 15.3098C14.4115 15.2452 14.4562 15.1675 14.4816 15.0828C14.507 14.9982 14.5124 14.9088 14.4976 14.8216C14.4836 14.7355 14.4514 14.6533 14.4029 14.5806C14.3545 14.508 14.2911 14.4466 14.2169 14.4006C13.7208 14.1106 13.3097 13.6952 13.0248 13.1962C12.7399 12.6971 12.5913 12.1319 12.5939 11.5572C12.5932 10.9774 12.7449 10.4076 13.0339 9.905C13.3229 9.40236 13.7389 8.98452 14.2403 8.69338C14.7417 8.40224 15.3108 8.24802 15.8906 8.2462C16.4704 8.24438 17.0404 8.39502 17.5437 8.68301C18.0469 8.97099 18.4655 9.38621 18.7576 9.88703C19.0498 10.3878 19.2051 10.9567 19.208 11.5364C19.211 12.1162 19.0615 12.6866 18.7745 13.1904C18.4875 13.6941 18.0731 14.1136 17.5728 14.4067C17.4987 14.4527 17.4352 14.5141 17.3868 14.5867C17.3384 14.6594 17.3061 14.7416 17.2922 14.8277C17.2773 14.9149 17.2828 15.0043 17.3082 15.0889C17.3336 15.1736 17.3782 15.2513 17.4386 15.3159C17.5007 15.3828 17.5578 15.4542 17.6094 15.5294C17.6625 15.6042 17.7318 15.6661 17.812 15.7105C17.8923 15.7549 17.9816 15.7806 18.0732 15.7857C20.3147 15.8712 22.5275 15.2593 24.4067 14.0345C24.5638 13.9173 24.7566 13.8581 24.9524 13.867C25.1482 13.8759 25.3348 13.9524 25.4806 14.0833C25.5205 14.1266 25.5509 14.1777 25.5698 14.2334C25.5887 14.2891 25.5958 14.3481 25.5905 14.4067H25.6271Z" fill="#111111"/>
<path d="M29.4095 9.56712C24.8149 8.0417 24.7905 3.05051 24.7905 2.85526C24.7944 2.72996 24.7595 2.60651 24.6908 2.5017C24.622 2.3969 24.5226 2.31582 24.4061 2.26949L22.4169 1.65932C17.767 0.243767 12.8011 0.243767 8.15119 1.65932L6.16203 2.26949C6.03574 2.31195 5.92681 2.39457 5.85189 2.50475C5.77697 2.61493 5.74017 2.74661 5.74712 2.87966C5.74712 2.92848 5.85695 7.76102 1.10373 9.59153C1.00212 9.63238 0.913381 9.69982 0.846819 9.78678C0.780256 9.87374 0.738324 9.97702 0.725422 10.0858C0.664405 10.6593 -0.629154 24.3454 5.60678 31.6431C6.72466 32.9608 8.10649 34.0293 9.66304 34.7797C11.2196 35.5302 12.9162 35.9458 14.6434 35.9997H15.9369C17.662 35.9451 19.3562 35.5285 20.9098 34.7769C22.4635 34.0253 23.8417 32.9556 24.9553 31.637C31.1851 24.3149 29.8915 10.6532 29.8366 10.0797C29.8229 9.96199 29.7752 9.85086 29.6993 9.75984C29.6235 9.66883 29.5228 9.60186 29.4095 9.56712ZM24.04 30.8681C23.0279 32.0601 21.7776 33.0271 20.3695 33.707C18.9614 34.3869 17.4266 34.7646 15.8637 34.8159H14.6434C13.0807 34.7639 11.5461 34.3858 10.1381 33.7059C8.73011 33.0261 7.47971 32.0595 6.46712 30.8681C1.09763 24.5773 1.68339 12.7278 1.82983 10.5373C3.2624 9.91593 4.49314 8.90709 5.38354 7.6243C6.27395 6.34151 6.78868 4.83569 6.86983 3.27627L8.45017 2.80034C12.8772 1.45196 17.6055 1.45196 22.0325 2.80034L23.6251 3.28237C23.741 4.67356 24.4427 8.93254 28.659 10.5556C28.8298 12.8132 29.3973 24.5956 24.04 30.8681Z" fill="#111111"/>
</svg>
