<svg width="46" height="36" viewBox="0 0 46 36" fill="none" xmlns="http://www.w3.org/2000/svg">
<g clip-path="url(#clip0_1_11933)">
<path d="M32.5728 5.14947H32.5361L26.451 4.79791C26.2795 4.78757 26.1202 4.70692 26.0079 4.57663C25.8977 4.44428 25.8446 4.27057 25.863 4.09892L26.1774 1.03411L26.1754 1.03204C26.1794 0.99895 26.1856 0.963793 26.1937 0.930704C26.3305 0.421971 26.8573 0.43231 27.082 0.43645C27.2555 0.440586 27.4903 0.452994 27.8048 0.47781C28.3112 0.517102 29.0116 0.58328 29.8855 0.67841C31.3679 0.837646 32.8646 1.0217 32.881 1.0217V1.02377C33.2159 1.06513 33.4589 1.36706 33.4303 1.70623L33.1954 4.56421V4.56628C33.1689 4.89509 32.8995 5.14741 32.5728 5.14947ZM27.1825 3.56743L32.0014 3.84455L32.1362 2.2129C30.2229 1.98335 28.2545 1.77655 27.3724 1.72071L27.1825 3.56743Z" fill="#111111"/>
<path d="M28.8543 30.9102H28.8359L1.3457 30.083C1.05575 30.0747 0.810739 29.8659 0.751514 29.5784L0.1716 26.7825L0.169558 26.7845C0.130762 26.5964 0.177726 26.402 0.298197 26.2531C0.416626 26.1042 0.594274 26.0173 0.784171 26.0173H28.9503C29.1177 26.0173 29.2811 26.0876 29.3995 26.2096C29.5159 26.3317 29.5812 26.4992 29.5771 26.6708L29.4812 30.2919C29.473 30.6352 29.1953 30.9102 28.8543 30.9102ZM1.87687 28.8277L28.2438 29.6218L28.305 27.2933H1.55811L1.87687 28.8277ZM30.676 29.8762H30.6433L30.6413 29.8783C30.2962 29.8597 30.0307 29.5598 30.0491 29.2103C30.3044 24.2574 31.3417 22.9257 31.4601 22.7891C31.4764 22.7705 31.4928 22.7519 31.5111 22.7353C32.1155 22.1852 32.6607 22.2783 32.9323 22.3817C33.6409 22.6526 34.1616 23.5729 34.574 25.2748C34.672 25.6801 34.7496 26.0751 34.8109 26.4143L40.3262 22.3547L40.3282 22.3568C40.3466 21.5689 40.4099 20.783 40.5181 20.0034C40.6304 19.2279 40.9734 16.8724 42.4559 16.8724C43.0786 16.8724 43.9424 17.1806 44.5202 18.6468C44.5447 18.7088 44.5692 18.7729 44.5896 18.835C44.606 16.2996 44.5182 14.335 44.3283 12.9993C44.2262 12.2879 44.1159 11.897 44.0363 11.6881L41.8412 12.4967C41.6758 12.5588 41.4921 12.5463 41.3369 12.4636C41.1797 12.3809 41.0653 12.2361 41.0204 12.0645C39.6931 7.02682 35.9544 5.73855 32.4728 5.14085C32.3053 5.11603 32.1563 5.02297 32.0583 4.88648C31.9582 4.74792 31.9194 4.57421 31.948 4.4067C31.9745 4.23919 32.0685 4.08823 32.2073 3.99103C32.3462 3.89383 32.5156 3.85661 32.681 3.88763C35.1415 4.31157 36.9751 4.9878 38.4451 6.02179C40.1583 7.22536 41.3364 8.87977 42.0368 11.0698L43.9971 10.3481C44.0093 10.344 44.0236 10.3398 44.0359 10.3357L44.0379 10.3378C44.2748 10.2736 44.528 10.3295 44.7179 10.4846C45.0915 10.772 45.3407 11.3987 45.5265 12.5174C45.7654 13.963 45.8716 16.1695 45.845 19.0853C45.843 19.2259 45.794 19.3645 45.7082 19.4741L44.7771 20.6466C44.6199 20.8472 44.3586 20.932 44.1156 20.8617C43.8726 20.7935 43.6949 20.5825 43.6643 20.3282C43.5765 19.6147 43.164 18.1381 42.4514 18.1381C42.4473 18.1381 42.0267 18.3222 41.7572 20.1731V20.1752C41.6429 21.0065 41.5816 21.844 41.5734 22.6837C41.5734 22.8863 41.4775 23.0766 41.3161 23.1965L34.7125 28.0584C34.5328 28.1929 34.296 28.2177 34.0918 28.1267C33.8856 28.0357 33.7447 27.8413 33.7202 27.6159C33.6344 26.9231 33.5099 26.2345 33.3506 25.5541C32.9504 23.9121 32.5624 23.6143 32.4991 23.575C32.4603 23.5915 32.4256 23.6143 32.3929 23.6412C32.2582 23.8521 31.5108 25.2005 31.3005 29.2746H31.3026C31.2842 29.6138 31.0086 29.8785 30.6757 29.8785L30.676 29.8762Z" fill="#111111"/>
<path d="M28.5589 27.2895H28.5426C28.1955 27.2792 27.9219 26.9876 27.9321 26.6381L28.0893 20.5541L2.2284 20.461V26.6567C2.2284 27.0062 1.94662 27.2916 1.59951 27.2916C1.25443 27.2916 0.972656 27.0062 0.972656 26.6567V19.8263C0.972656 19.4768 1.25444 19.1914 1.59951 19.1914L28.728 19.2865H28.7301C28.8995 19.2865 29.0608 19.3568 29.1793 19.4789C29.2977 19.6009 29.361 19.7663 29.3569 19.938L29.1854 26.6715L29.1834 26.6736C29.1752 27.0148 28.8975 27.2899 28.5585 27.2899L28.5589 27.2895Z" fill="#111111"/>
<path d="M21.6722 27.2904C21.3251 27.2904 21.0454 27.005 21.0454 26.6556V23.1937L7.41786 23.1916V26.6556C7.41786 27.0051 7.13608 27.2904 6.78896 27.2904C6.44388 27.2904 6.16211 27.005 6.16211 26.6556V22.5567C6.16211 22.2052 6.44389 21.9219 6.78896 21.9219H21.6726C22.0197 21.9219 22.2994 22.2052 22.2994 22.5567V26.6556C22.2994 27.0051 22.0193 27.2904 21.6722 27.2904Z" fill="#111111"/>
<path d="M28.7291 20.5535C28.4739 20.5556 28.2452 20.3984 28.1492 20.1606C28.0512 19.9207 28.1083 19.6477 28.2901 19.4658L32.0676 15.702L11.8752 15.8054H11.8711C11.524 15.8054 11.2422 15.522 11.2422 15.1705C11.2402 14.821 11.5219 14.5356 11.867 14.5335L33.6031 14.4219H33.6071V14.4239C33.8603 14.4239 34.0911 14.579 34.1871 14.8189C34.283 15.0568 34.2279 15.3297 34.0462 15.5117L29.1681 20.3716C29.0517 20.4874 28.8945 20.5535 28.7291 20.5535Z" fill="#111111"/>
<path d="M33.6082 15.6936H33.598C33.2529 15.6895 32.9752 15.4 32.9813 15.0505L33.0671 8.60016L16.9728 8.72217H16.9687C16.6216 8.72217 16.3399 8.43885 16.3399 8.08937C16.3378 7.73781 16.6176 7.45243 16.9647 7.45037L33.6982 7.32422H33.7023C33.8697 7.32422 34.031 7.39247 34.1495 7.51241C34.2659 7.63442 34.3312 7.79779 34.3292 7.96737L34.2352 15.0668C34.2312 15.4142 33.9512 15.6936 33.6082 15.6936Z" fill="#111111"/>
<path d="M36.5568 14.3988C36.4526 14.3988 36.3505 14.376 36.2587 14.3305C36.0626 14.2354 35.9258 14.0452 35.9013 13.8259C35.787 12.8209 35.693 12.0743 35.6134 11.4746C35.4909 10.5213 35.4051 9.82846 35.3337 8.85858V8.86065C35.3194 8.65799 35.399 8.46152 35.5501 8.33124C36.2811 7.69224 36.8998 7.71082 37.2898 7.83905C38.4884 8.23404 39.0009 10.0415 39.4624 12.0206C39.4991 12.1798 39.5318 12.3246 39.5665 12.4548C39.6339 12.732 39.5114 13.0215 39.2663 13.1621C39.2439 13.1745 38.6987 13.4847 38.1168 13.7887C37.2428 14.2395 36.8345 14.3988 36.5568 14.3988ZM36.6119 9.11706C36.6732 9.87396 36.7508 10.4675 36.859 11.3112C36.9141 11.7476 36.9815 12.2646 37.057 12.8994C37.3899 12.7402 37.8187 12.5148 38.2352 12.2852C38.0841 11.6358 37.8963 10.8335 37.6349 10.1593C37.2776 9.2349 36.9835 9.07359 36.9039 9.0467C36.8223 9.02188 36.714 9.06118 36.6119 9.12115L36.6119 9.11706Z" fill="#111111"/>
<path d="M7.46046 34.0331C6.81113 34.0331 6.23942 34.0207 6.00252 33.9793L5.98415 33.9752C5.42059 33.8697 5.0816 33.2348 4.6916 31.5494C4.47107 30.596 4.3261 29.6778 4.31997 29.6385V29.6406C4.29138 29.4731 4.32814 29.3015 4.42615 29.1608C4.52416 29.0223 4.67322 28.9292 4.83861 28.9023C5.00604 28.8754 5.17552 28.9189 5.31029 29.0202C5.44505 29.1215 5.5349 29.2725 5.5594 29.4421C5.76155 30.7325 6.11887 32.2794 6.36597 32.7426C7.01938 32.7819 8.92649 32.7509 10.0965 32.7199V32.7178C10.4436 32.7096 10.7315 32.9846 10.7418 33.3362C10.7499 33.6877 10.4784 33.9793 10.1312 33.9897C9.77389 34.0021 8.51407 34.0331 7.46046 34.0331Z" fill="#111111"/>
<path d="M9.94091 34.0087C9.62033 34.0066 9.30793 33.9053 9.04453 33.7191C7.77242 32.8485 7.2211 30.0712 7.16188 29.7568V29.7589C7.10266 29.4156 7.32523 29.0889 7.66419 29.0227C8.0011 28.9586 8.32779 29.1819 8.39517 29.5211C8.59324 30.5799 9.14455 32.255 9.74689 32.6665C9.80202 32.71 9.86941 32.7348 9.94087 32.7389C10.1471 32.6252 10.9924 32.0192 10.9924 29.7506C10.9924 29.4012 11.2722 29.1158 11.6193 29.1158C11.9664 29.1158 12.2461 29.4012 12.2461 29.7506C12.2461 31.1734 11.9521 32.2984 11.3702 33.0926C10.9005 33.7357 10.4064 33.926 10.3125 33.959C10.288 33.9673 10.2614 33.9735 10.2349 33.9797C10.1389 33.9983 10.0389 34.0087 9.94091 34.0087Z" fill="#111111"/>
<path d="M32.7595 35.5633H32.7268L28.8839 35.3565C28.8084 35.3524 28.7349 35.3338 28.6655 35.3048C27.9651 34.9926 27.4709 34.0723 27.1115 32.4075L27.1095 32.4055C26.9604 31.7003 26.8522 30.9847 26.7869 30.2651C26.7685 30.0955 26.8196 29.9238 26.9278 29.7915C27.0339 29.6612 27.1891 29.5785 27.3586 29.564C27.526 29.5495 27.6935 29.6054 27.8221 29.717C27.9487 29.8287 28.0263 29.9879 28.0365 30.1596C28.0998 30.8275 28.1999 31.4914 28.3387 32.1469C28.645 33.549 28.9737 33.9751 29.1085 34.093L32.4083 34.2729C32.7615 33.5718 33.5885 31.5245 33.7151 27.5208V27.5228C33.7273 27.1713 34.0173 26.8962 34.3624 26.9065C34.7095 26.9189 34.9811 27.2126 34.9688 27.5642C34.7912 33.1108 33.3272 35.2158 33.2659 35.3026V35.3005C33.1495 35.466 32.9596 35.5633 32.7595 35.5633Z" fill="#111111"/>
<path d="M32.7605 35.5642C32.6911 35.5642 32.6217 35.5518 32.5543 35.5291C31.464 35.1465 30.7125 33.9388 30.3184 31.9348H30.3205C30.151 31.0476 30.0612 30.146 30.0469 29.2423C30.0469 28.8928 30.3287 28.6074 30.6758 28.6074C31.0209 28.6074 31.3026 28.8928 31.3026 29.2423C31.3149 30.0695 31.4006 30.8946 31.5538 31.7073C31.8458 33.1819 32.346 34.1145 32.9647 34.3296C33.2567 34.4309 33.4303 34.7287 33.3813 35.0347C33.3302 35.3408 33.0668 35.5662 32.7605 35.5662L32.7605 35.5642Z" fill="#111111"/>
<path d="M41.1794 28.1936C39.307 28.1936 39.1089 28.0757 38.9497 27.9827L38.9211 27.9641C38.6413 27.7759 38.4473 27.4181 38.1697 25.9912C38.0288 25.2694 37.9308 24.587 37.9267 24.556V24.5539C37.9022 24.3885 37.945 24.2189 38.0451 24.0824C38.1451 23.948 38.2922 23.8591 38.4576 23.8342C38.8006 23.7846 39.1191 24.0266 39.1682 24.3719C39.3029 25.3108 39.5214 26.4399 39.6725 26.8763C40.1728 26.9301 41.4714 26.9342 42.6598 26.9032C43.107 26.0449 44.3055 23.3689 43.6746 20.3866V20.3887C43.6379 20.2233 43.6685 20.0496 43.7604 19.9089C43.8502 19.7662 43.9911 19.667 44.1545 19.6298C44.4934 19.5553 44.8283 19.7745 44.9018 20.1178C45.7757 24.2476 43.6542 27.7175 43.5643 27.8647C43.4541 28.0425 43.2622 28.1542 43.0539 28.1604C43.0457 28.1604 42.1799 28.1894 41.2815 28.1914L41.1794 28.1936Z" fill="#111111"/>
<path d="M43.0325 28.1645H42.9958C42.0279 28.1066 41.3071 27.1491 40.7905 25.2404H40.7884C40.5761 24.4235 40.4188 23.5922 40.3229 22.7526C40.2922 22.4072 40.5393 22.1011 40.8803 22.0639C41.2193 22.0288 41.5276 22.2728 41.5684 22.6182C41.6603 23.3936 41.8053 24.1609 42.0034 24.9157C42.4219 26.4501 42.8691 26.8824 43.0693 26.8948C43.4143 26.9051 43.688 27.1988 43.6778 27.5483C43.6675 27.8999 43.3776 28.1749 43.0325 28.1645Z" fill="#111111"/>
<path d="M38.6094 16.3317C38.3297 16.3317 38.0826 16.1435 38.0051 15.8705C37.9275 15.5975 38.0377 15.3059 38.2766 15.157L39.2813 14.5221H39.2792C39.4201 14.4291 39.5916 14.3981 39.757 14.4353C39.9204 14.4725 40.0613 14.5759 40.1511 14.7186C40.2389 14.8634 40.2675 15.0371 40.2287 15.2025C40.1899 15.368 40.0878 15.5106 39.9449 15.5996L38.9402 16.2344C38.8422 16.2965 38.7258 16.3317 38.6094 16.3317Z" fill="#111111"/>
<path d="M1.60173 20.4585C1.30362 20.4626 1.0443 20.2517 0.980996 19.956C0.917699 19.6623 1.07084 19.3625 1.34445 19.2425L3.47619 18.2747L11.464 14.6577L16.4626 7.71132C18.7168 4.57826 22.0432 4.1316 24.9773 3.7366C25.4673 3.67043 25.9308 3.60839 26.3882 3.53394C26.7272 3.48431 27.0416 3.72006 27.0968 4.06335C27.1499 4.40457 26.9232 4.72718 26.5863 4.78923C26.1126 4.86574 25.6184 4.93192 25.1427 4.99603C22.3269 5.37654 19.4152 5.76944 17.4753 8.45997L12.3787 15.5451C12.3154 15.634 12.2276 15.7043 12.1276 15.7498L3.98871 19.435L1.85697 20.4028C1.77734 20.44 1.68954 20.4585 1.60173 20.4585Z" fill="#111111"/>
</g>
<defs>
<clipPath id="clip0_1_11933">
<rect width="46" height="36" fill="white"/>
</clipPath>
</defs>
</svg>
