<svg width="262" height="244" viewBox="0 0 262 244" fill="none" xmlns="http://www.w3.org/2000/svg"><g clip-path="url(#a)"><path fill-rule="evenodd" clip-rule="evenodd" d="M101.112 99.16c-.479-.237-1.125-.416-1.745-.381-1.227.074-15.5 5.444-15.5 5.444s-2.914-3.773-5.252-5.104a9.447 9.447 0 0 0-.5-.267c-2.083-1.03-3.653-.793-4.072-.361-.453.463-.653 2.247.741 4.539 1.39 2.287 5.246 5.102 5.246 5.102s-.006.013-.011.03c-.005.011-.008.029-.016.045-.007.022-.016.04-.027.068-.005.01-.008.015-.009.024-.014.049-.036.106-.06.176-.005.01-.005.017-.01.027-.024.067-.046.138-.074.215a.586.586 0 0 1-.028.07c-.067.189-.146.414-.235.673v.003l-.124.349-.074.208c-.037.109-.073.222-.113.329-.02.052-.035.103-.055.151l-.088.251c-.086.253-.177.518-.276.798-.034.094-.062.191-.096.285l-.152.429c-.015.049-.033.092-.048.143-.012.03-.02.061-.031.089-.113.322-.229.655-.341.994-.015.051-.035.104-.05.155-.47 1.367-.965 2.833-1.426 4.217-.041.123-.084.242-.123.369-.04.112-.071.223-.11.334-.022.058-.036.106-.056.168-.035.103-.067.208-.1.309-.02.061-.04.124-.06.181-.037.106-.069.211-.101.316-.063.193-.126.38-.185.566-.012.05-.026.092-.039.138-.046.14-.09.281-.136.415l-.038.13c-.11.34-.208.66-.298.961l-.042.132c-.026.104-.06.205-.086.299l-.039.125c-.037.128-.073.254-.103.369-.142.506-.225.866-.232 1.019-.006.124 0 .247.014.375 0 .016.003.034.005.051.012.12.032.234.056.35a4.21 4.21 0 0 0 .113.402c.003.014.012.028.019.048.036.112.077.221.124.325.092.199.196.381.296.522.012.015.02.032.033.045.026.035.048.069.079.101.013.013.022.027.035.04.025.029.053.052.077.077.01.012.025.022.034.03a.542.542 0 0 0 .095.06c.058.029.11.035.156.016a.094.094 0 0 0 .028-.023.212.212 0 0 0 .047-.048l.004-.008c.018-.017.036-.041.062-.074.047-.061.105-.14.172-.234l.106-.143c.004-.008.01-.014.013-.019.04-.053.076-.107.114-.163l.002-.005c.085-.118.177-.258.282-.405.005-.01.013-.019.016-.025.044-.062.088-.125.136-.196.01-.012.017-.028.027-.042.163-.236.34-.494.524-.78.015-.012.023-.028.034-.042.053-.082.107-.159.157-.239a.554.554 0 0 0 .043-.06c.055-.086.111-.166.168-.255l.029-.045c.138-.205.28-.421.431-.647.003-.005.005-.01.013-.013l.201-.307a.558.558 0 0 0 .037-.061c.057-.089.117-.176.174-.265.018-.03.036-.061.057-.083l.217-.333c.007-.015.015-.025.022-.038l.209-.317c.017-.027.038-.056.057-.089l.145-.221.107-.162c.045-.072.09-.142.138-.206.028-.044.053-.087.084-.131.071-.111.144-.225.218-.335.017-.027.034-.048.05-.073.057-.089.12-.178.176-.271.038-.057.07-.109.105-.16.04-.066.083-.129.126-.195.029-.045.055-.091.083-.128l.68-1.049c.03-.044.062-.093.092-.141.124-.199.254-.395.379-.587a.845.845 0 0 1 .067-.104c1.575-2.437 2.854-4.427 2.854-4.427l8.763 6.898s-.014.055-.035.156l-.004.008c-.236.896-1.349 5.262-1.25 6.125.09.843.369 1.593.658 1.736a.199.199 0 0 0 .124.022c.329-.042 3.511-5.91 3.511-5.91s1.506 1.198 2.612 1.744c.488.241.899.357 1.066.185.558-.552-2.015-3.609-2.015-3.609s5.816-3.185 5.852-3.636c.012-.183-.118-.325-.342-.436-.329-.163-.865-.258-1.444-.307a3.878 3.878 0 0 0-.184.001c-.085.007-.182.011-.286.028-.967.125-2.862.605-4.223.971-.008-.004-.01-.001-.012-.002-.145.042-.287.076-.416.113-.01-.001-.016.005-.025.004a9.846 9.846 0 0 1-.362.101c-.004.002-.013.001-.017.002-.11.03-.214.061-.297.084a.035.035 0 0 0-.02.007c-.081.025-.154.041-.213.06-.02.007-.035.01-.053.014-.038.01-.065.019-.089.027a.879.879 0 0 0-.08.023l-7.134-8.563s12.906-8.603 12.995-8.97c.045-.183-.259-.47-.728-.702z" fill="#664117"/></g><path fill-rule="evenodd" clip-rule="evenodd" d="M469.241 202.981c-.437-.263-1.161-.131-1.618.313a313.81 313.81 0 0 1-4.893 4.836c-.465.453-.498 1.085-.062 1.375l.044.026c.426.257 1.125.124 1.566-.289 1.644-1.627 3.29-3.253 4.927-4.884.465-.454.471-1.074.052-1.367a.304.304 0 0 0-.016-.01zm-15.322 14.576c-.419-.252-1.092-.146-1.543.262a349.695 349.695 0 0 1-10.823 9.323c-.524.432-.616 1.041-.239 1.393a.604.604 0 0 0 .121.086c.401.242 1.025.161 1.483-.2a313.695 313.695 0 0 0 10.923-9.415c.5-.461.565-1.072.146-1.394a.214.214 0 0 0-.068-.055zm-22.263 18.261c-.367-.221-.966-.167-1.425.166a263.15 263.15 0 0 1-11.856 8.245c-.551.346-.769.976-.467 1.38a.46.46 0 0 0 .207.207c.35.211.906.173 1.349-.128a250.1 250.1 0 0 0 11.999-8.339c.534-.398.691-1.023.356-1.406a1.156 1.156 0 0 0-.163-.125zm-24.399 15.839c-.316-.191-.806-.181-1.249.064a192.5 192.5 0 0 1-12.847 6.581c-.595.279-.94.888-.763 1.355a.725.725 0 0 0 .302.347c.29.175.73.177 1.123-.015a191.111 191.111 0 0 0 13.074-6.694c.593-.335.862-.948.618-1.386a.724.724 0 0 0-.258-.252zm-26.328 12.212c-.264-.159-.636-.19-1.022-.049a173.266 173.266 0 0 1-13.562 4.351c-.622.179-1.102.735-1.051 1.25a.684.684 0 0 0 .347.555c.23.139.527.179.905.074 4.6-1.245 9.255-2.748 13.797-4.43.621-.235 1.041-.826.915-1.332a.689.689 0 0 0-.329-.419zm-168.811-78.638c-.452-.272-1.185-.104-1.616.356-.44.469-.438 1.08.015 1.352a74.456 74.456 0 0 1 3.605 2.352 78.19 78.19 0 0 1 5.562 4.195c.026.029.06.05.094.071.41.246 1.067.144 1.517-.264.49-.453.564-1.059.162-1.384a81.799 81.799 0 0 0-9.339-6.678zm-10.424-5.392l-.085-.052a98.31 98.31 0 0 0-11.518-4.14c-.535-.156-1.239.14-1.577.657-.288.45-.195.921.18 1.147a.639.639 0 0 0 .204.081 92.537 92.537 0 0 1 11.306 4.068c.493.214 1.233-.019 1.604-.515.356-.465.305-.994-.114-1.246zm27.857 19.562c-.376-.226-.975-.157-1.45.207-.525.404-.667 1.025-.306 1.395 2.374 2.454 4.768 5.143 7.304 8.193a.54.54 0 0 0 .179.164c.368.221.941.165 1.393-.159.55-.374.725-1.003.398-1.394a142.48 142.48 0 0 0-7.356-8.28 1.114 1.114 0 0 0-.162-.126zm123.899 71.998c-.196-.118-.468-.171-.78-.11a168.24 168.24 0 0 1-10.432 1.513 54.31 54.31 0 0 1-3.122.252c-.625.025-1.217.486-1.342 1.047-.053.342.07.638.334.797.154.093.358.146.585.131a78.2 78.2 0 0 0 3.282-.253c3.551-.409 7.106-.926 10.627-1.561.64-.113 1.164-.629 1.188-1.168a.697.697 0 0 0-.34-.648zM108.062 132.512c-.444-.268-1.177-.141-1.617.314-.465.467-.454 1.083-.019 1.359a48.354 48.354 0 0 1 8.576 6.993c.06.05.111.095.162.126.367.221.983.163 1.442-.198.533-.413.667-1.025.314-1.39a48.625 48.625 0 0 0-8.858-7.204zm70.029 40.436a.898.898 0 0 0-.323-.126 124.913 124.913 0 0 0-13.018-1.457c-.592-.038-1.252.382-1.445.93-.146.397-.005.731.302.916a.938.938 0 0 0 .459.124c4.321.248 8.613.742 12.747 1.446.593.094 1.271-.273 1.524-.799.213-.426.096-.829-.246-1.034zm65.576 43.32c-.359-.216-.898-.181-1.358.124-.559.383-.76 1.01-.457 1.414 1.452 1.899 2.886 3.83 4.322 5.747l2.239 3.01c.06.078.137.138.223.19.35.211.889.162 1.332-.14.56-.355.777-.999.466-1.408l-2.239-2.997c-1.435-1.917-2.853-3.851-4.314-5.755a.732.732 0 0 0-.214-.185zm-120.223-67.983c-.333-.2-.831-.182-1.283.072-.594.349-.829.955-.584 1.393a47.907 47.907 0 0 1 4.407 9.815.726.726 0 0 0 .311.38c.273.165.67.183 1.09.006.604-.245.982-.848.831-1.327a48.083 48.083 0 0 0-4.531-10.097.681.681 0 0 0-.241-.242zm203.068 124.323a.97.97 0 0 0-.381-.119c-3.98-.5-8.157-1.243-12.407-2.238-.576-.126-1.255.185-1.559.722-.246.448-.145.882.214 1.099.076.045.162.083.255.112 4.333 1.003 8.579 1.761 12.642 2.256.601.084 1.263-.306 1.49-.834.179-.419.062-.807-.254-.998zm-69.605-38.865c-.359-.216-.915-.163-1.366.147-.576.373-.753.986-.441 1.396 2.529 3.171 4.857 5.93 7.122 8.444.043.039.095.099.154.134.384.232.957.161 1.442-.17.525-.404.683-1.015.347-1.397-2.255-2.48-4.566-5.229-7.061-8.38a.96.96 0 0 0-.197-.174zm45.155 33.25a1.16 1.16 0 0 0-.179-.08 112.762 112.762 0 0 1-11.158-4.325c-.485-.223-1.208.006-1.597.492-.372.468-.321 1.012.098 1.264l.06.036.016.01c3.492 1.576 7.301 3.054 11.328 4.399.535.184 1.241-.097 1.587-.623.304-.453.237-.937-.155-1.173zm-30.28-16.979c-.401-.241-1.016-.141-1.475.234-.524.432-.607 1.046-.246 1.403a92.866 92.866 0 0 0 8.283 6.65l.632.436.034.021c.435.262 1.143.121 1.591-.315.449-.45.464-1.064.028-1.355l-.582-.42c-2.753-1.935-5.486-4.149-8.137-6.549-.043-.039-.077-.074-.128-.105zm-119.939-78.613a.978.978 0 0 0-.577-.126c-4.584.202-9.215.64-13.816 1.303-.64.099-1.206.603-1.256 1.14a.725.725 0 0 0 .358.701c.179.108.434.15.72.115a132.36 132.36 0 0 1 13.538-1.277c.633-.034 1.233-.489 1.35-1.042.079-.354-.044-.65-.317-.814zm-21.75-2.258c-.231-.139-.561-.171-.897-.083-.631.16-1.103.72-1.06 1.245a55.3 55.3 0 0 1-.221 11.375.695.695 0 0 0 .334.727c.17.102.416.154.694.127.633-.076 1.182-.562 1.265-1.121.491-3.942.559-7.875.215-11.725a.684.684 0 0 0-.33-.545zm-5.739 6.292c-.222-.133-.519-.173-.855-.085-5.333 1.358-9.859 2.951-13.873 4.91-.594.307-.922.899-.72 1.367a.792.792 0 0 0 .292.315c.299.18.738.182 1.158-.01 3.804-1.849 8.145-3.388 13.259-4.698.623-.151 1.12-.71 1.086-1.229a.714.714 0 0 0-.347-.57zm2.724 17.095a1.017 1.017 0 0 0-.434-.135c-.608-.022-1.261.39-1.462.933-1.565 4.375-3.641 7.971-6.336 10.974-.431.473-.404 1.058.048 1.33l.017.011c.461.263 1.193.08 1.624-.393 2.936-3.246 5.185-7.112 6.853-11.797.13-.395-.003-.738-.31-.923zm-28.031-3.991c-.444-.267-1.176-.099-1.617.357l-.315.336c-3.153 3.363-5.28 6.999-6.098 10.493-.087.377-.164.759-.234 1.133-.054.328.094.584.35.738.17.103.4.157.635.12.633-.063 1.217-.557 1.292-1.093.045-.333.106-.655.186-.982.758-3.102 2.662-6.373 5.517-9.417l.299-.319c.44-.455.437-1.065.002-1.356l-.017-.01zm9.44 23.094c-.23-.139-.552-.18-.914-.08-2.143.635-4.167.842-6.037.628-1.474-.166-2.824-.621-4.002-1.33a9.122 9.122 0 0 1-1.137-.81l-.12-.072c-.41-.246-1.058-.138-1.5.261-.5.419-.59 1.056-.187 1.382.42.35.873.665 1.334.942 1.408.848 3.006 1.381 4.766 1.597 2.209.251 4.588.022 7.119-.726.629-.187 1.093-.753 1.017-1.27a.666.666 0 0 0-.339-.522z" fill="#664117" fill-opacity=".5"/><defs><clipPath id="a"><path fill="#fff" transform="rotate(26.304 -148.62 213.102)" d="M0 0h35.334v35.629H0z"/></clipPath></defs></svg>