<svg width="16" height="16" viewBox="0 0 16 16" fill="none" xmlns="http://www.w3.org/2000/svg">
<path d="M8.56937 2.33378C8.32417 1.88874 7.67583 1.88874 7.43063 2.33378C7.29706 2.57621 7.1689 2.8219 7.04633 3.07068C6.66033 3.8541 6.32964 4.66822 6.05919 5.50825C5.96668 5.7956 5.69179 5.99517 5.37718 6.00352C4.63473 6.02323 3.89364 6.08432 3.15876 6.18804C2.94887 6.21766 2.74011 6.25063 2.53252 6.2869C2.01634 6.37708 1.82266 6.9656 2.1892 7.32427C2.27281 7.40608 2.35713 7.48721 2.44215 7.56765C3.07792 8.16916 3.75279 8.73188 4.46269 9.2519C4.70754 9.43126 4.80819 9.73895 4.71461 10.0198C4.42142 10.8997 4.19452 11.8086 4.03962 12.7411C4.00856 12.9281 3.98039 13.116 3.95516 13.3048C3.88796 13.8079 4.42699 14.1632 4.89486 13.9234C5.06187 13.8378 5.22741 13.7498 5.39142 13.6595C6.14391 13.2453 6.86433 12.7824 7.54816 12.2752C7.81358 12.0783 8.18642 12.0783 8.45184 12.2752C9.13567 12.7824 9.85609 13.2453 10.6086 13.6595C10.7726 13.7498 10.9381 13.8378 11.1051 13.9234C11.573 14.1632 12.112 13.8079 12.0448 13.3048C12.0196 13.116 11.9914 12.9281 11.9604 12.7411C11.8055 11.8086 11.5786 10.8997 11.2854 10.0198C11.1918 9.73895 11.2925 9.43126 11.5373 9.2519C12.2472 8.73188 12.9221 8.16916 13.5578 7.56765C13.6429 7.48721 13.7272 7.40608 13.8108 7.32427C14.1773 6.9656 13.9837 6.37708 13.4675 6.2869C13.2599 6.25063 13.0511 6.21766 12.8412 6.18804C12.1064 6.08432 11.3653 6.02323 10.6228 6.00352C10.3082 5.99517 10.0333 5.7956 9.94081 5.50825C9.67036 4.66822 9.33967 3.8541 8.95367 3.07068C8.8311 2.8219 8.70294 2.57621 8.56937 2.33378Z" fill="#FD4621" stroke="#FD4621" stroke-width="1.5" stroke-linecap="round" stroke-linejoin="round"/>
</svg>
