<svg width="28" height="28" viewBox="0 0 28 28" fill="none" xmlns="http://www.w3.org/2000/svg">
<path d="M14.9964 4.08411C14.5673 3.3053 13.4327 3.3053 13.0036 4.08411C12.7699 4.50837 12.5456 4.93832 12.3311 5.37369C11.6556 6.74467 11.0769 8.16938 10.6036 9.63944C10.4417 10.1423 9.96063 10.4915 9.41006 10.5062C8.11078 10.5407 6.81388 10.6476 5.52783 10.8291C5.16053 10.8809 4.79519 10.9386 4.4319 11.0021C3.5286 11.1599 3.18965 12.1898 3.8311 12.8175C3.97742 12.9606 4.12498 13.1026 4.27377 13.2434C5.38637 14.296 6.56738 15.2808 7.80971 16.1908C8.23819 16.5047 8.41433 17.0432 8.25057 17.5347C7.73749 19.0745 7.34041 20.6651 7.06934 22.2968C7.01498 22.6241 6.96568 22.953 6.92154 23.2835C6.80392 24.1639 7.74723 24.7856 8.56601 24.3659C8.85828 24.2161 9.14796 24.0621 9.43498 23.9041C10.7518 23.1793 12.0126 22.3692 13.2093 21.4815C13.6738 21.137 14.3262 21.137 14.7907 21.4815C15.9874 22.3692 17.2482 23.1793 18.565 23.9041C18.852 24.0621 19.1417 24.2161 19.434 24.3659C20.2528 24.7856 21.1961 24.1639 21.0785 23.2835C21.0343 22.953 20.985 22.6241 20.9307 22.2968C20.6596 20.6651 20.2625 19.0745 19.7494 17.5347C19.5857 17.0432 19.7618 16.5047 20.1903 16.1908C21.4326 15.2808 22.6136 14.296 23.7262 13.2434C23.875 13.1026 24.0226 12.9606 24.1689 12.8175C24.8104 12.1898 24.4714 11.1599 23.5681 11.0021C23.2048 10.9386 22.8395 10.8809 22.4722 10.8291C21.1861 10.6476 19.8892 10.5407 18.5899 10.5062C18.0394 10.4915 17.5583 10.1423 17.3964 9.63944C16.9231 8.16938 16.3444 6.74467 15.6689 5.37369C15.4544 4.93832 15.2301 4.50837 14.9964 4.08411Z" fill="#FD4621" stroke="#FD4621" stroke-width="1.5" stroke-linecap="round" stroke-linejoin="round"/>
</svg>
