<svg xmlns="http://www.w3.org/2000/svg" width="193" height="173" viewBox="0 0 193 173" fill="none"><g clip-path="url(#clip0_10072_24778)"><path fill-rule="evenodd" clip-rule="evenodd" d="M135.211 120.71C135.043 119.698 134.906 118.826 134.837 118.366C134.422 115.564 132.298 108.584 132.929 103.577C133.409 99.7569 135.488 97.0694 140.324 97.3359C144.719 97.5786 148.517 100.493 151.465 104.813C157.809 114.108 160.527 129.89 159.755 134.651C159.671 135.171 159.041 135.481 158.344 135.344C157.651 135.207 157.155 134.677 157.24 134.157C157.979 129.588 155.341 114.441 149.251 105.517C146.869 102.029 144.039 99.4692 140.489 99.2741C136.985 99.0805 135.802 101.253 135.454 104.022C134.838 108.895 136.952 115.685 137.357 118.413C137.61 120.123 138.812 126.65 138.742 127.21C138.653 127.911 137.94 127.982 137.702 127.991C137.516 127.999 136.583 127.989 136.208 127.123C130.85 114.767 111.873 97.4917 89.7344 87.1126C67.7905 76.8244 42.6597 73.3277 24.6679 88.5268C24.2299 88.8952 23.4311 88.8788 22.8845 88.4913C22.3385 88.1015 22.2496 87.486 22.6877 87.1175C41.5395 71.1925 67.8402 74.7133 90.8292 85.4911C110.204 94.5741 127.168 108.824 135.211 120.71Z" fill="#FD4621"></path><path fill-rule="evenodd" clip-rule="evenodd" d="M24.7705 87.1472C27.6928 86.9748 30.5824 86.7305 33.5555 86.7355C41.4761 86.7478 49.9348 88.0579 57.4653 90.9481C58.1238 91.2021 58.4592 91.7905 58.2193 92.2632C57.9757 92.7374 57.247 92.9153 56.5909 92.6643C49.4456 89.9182 41.4134 88.6907 33.8988 88.6795C30.4961 88.675 27.2002 89.002 23.8404 89.1656C23.6722 89.1722 22.2213 89.2781 21.8954 89.2346C21.1362 89.1364 20.8374 88.7294 20.7284 88.5307C20.6349 88.3652 20.5719 88.1553 20.6218 87.9058C20.6641 87.7015 20.8671 87.3408 21.2817 86.9175C22.6036 85.5576 26.3476 82.7908 26.8897 82.2798C33.1068 76.4219 37.4504 70.0287 42.2612 63.4097C42.5827 62.9713 43.3479 62.8638 43.9704 63.1708C44.5929 63.4779 44.8374 64.0839 44.5189 64.5229C39.6481 71.2262 35.2365 77.6943 28.9428 83.6226C28.5719 83.975 26.3599 85.8243 24.7705 87.1472Z" fill="#FD4621"></path></g><defs><clipPath id="clip0_10072_24778"><rect width="160" height="107" fill="white" transform="matrix(0.866025 0.5 0.5 -0.866025 0.0888672 92.7148)"></rect></clipPath></defs></svg>