<svg width="22" height="22" viewBox="0 0 22 22" fill="none" xmlns="http://www.w3.org/2000/svg">
<path d="M14.3 13.3113C12.1046 15.622 6.5045 10.0722 8.70828 7.75274C10.0538 6.33657 8.53383 4.71815 7.69249 3.52856C6.11347 1.29596 2.64707 4.37837 2.75235 6.33915C3.08433 12.5224 9.77308 19.8501 16.2502 19.2109C18.2765 19.011 20.6047 15.3516 18.2805 14.0142C17.1183 13.3454 15.523 12.0241 14.3 13.3113Z" stroke="#FD4621" stroke-width="1.5" stroke-linecap="round" stroke-linejoin="round"/>
<path d="M12.834 2.75C14.5358 2.75 16.1679 3.42604 17.3713 4.6294C18.5746 5.83276 19.2507 7.46486 19.2507 9.16667" stroke="#FD4621" stroke-width="1.5" stroke-linecap="round" stroke-linejoin="round"/>
<path d="M12.834 6.41602C13.5633 6.41602 14.2628 6.70575 14.7785 7.22147C15.2943 7.7372 15.584 8.43667 15.584 9.16602" stroke="#FD4621" stroke-width="1.5" stroke-linecap="round" stroke-linejoin="round"/>
</svg>
