<svg width="32" height="22" viewBox="0 0 32 22" fill="none" xmlns="http://www.w3.org/2000/svg"><g clip-path="url(#a)" fill-rule="evenodd" clip-rule="evenodd" fill="#664117"><path d="M13.441 8.556v1.222H16V8.556h-2.558zM5.12 8.556v1.222h3.197V8.556H5.119z"/><path d="M8.689 6.76c.538 0 .973.412.978.917l-.007 3.105c0 .507-.435.917-.973.917H4.015c-.538 0-.973-.41-.973-.917V7.677c0-.505.435-.917.973-.917H8.69zm8.192 0c.54 0 .973.412.978.917l-.005 3.105c0 .507-.438.917-.973.917h-4.67c-.536 0-.973-.41-.973-.917V7.677c0-.505.438-.917.974-.917h4.669zm11.939 6.16H29.386c.494.01.893.39.893.856 0 .466-.399.846-.893.855H28.82c-.502 0-.915-.383-.915-.855 0-.473.413-.855.915-.855zM7.585 18.342l1.15 1.339H6.269L5.12 18.342h2.465zm4.805 0l1.15 1.339h-2.462l-1.15-1.338h2.462zm4.809 0l1.15 1.339h-2.465l-1.15-1.338H17.2zm4.805 0l1.15 1.339H20.69l-1.15-1.338h2.465zM13.033.614c-.504 0-.91.377-.91.854 0 .47.406.85.91.85h2.229a.737.737 0 0 0 .114.24l.953 1.36h-13.4C1.31 3.92.002 5.15 0 6.664v6.258h25.652c.496.01.89.39.89.855 0 .466-.394.846-.89.855H0v.968c.003 1.459 1.223 2.661 2.779 2.738L3.93 19.68H.912c-.504 0-.912.382-.912.854 0 .473.408.85.912.855h29.282c.502 0 .912-.383.912-.855s-.41-.854-.912-.854h-4.696l-1.15-1.336h1.674c1.616 0 3.132-.72 4.092-1.937.957-1.218 1.246-2.79.77-4.235l-.154-.473h-7.62c-1.735-.002-3.137-1.32-3.142-2.944V3.919H18.44a.893.893 0 0 0-.126-.277l-.923-1.323h.062c.504 0 .912-.38.912-.85 0-.478-.408-.855-.912-.855h-4.421z"/><path d="M21.76 3.67v4.866c0 .687.587 1.242 1.309 1.242h7.01l-.882-2.725c-.654-2.01-2.614-3.384-4.833-3.384H21.76z"/></g><defs><clipPath id="a"><path fill="#fff" d="M0 0h32v22H0z"/></clipPath></defs></svg>