<svg xmlns="http://www.w3.org/2000/svg" width="188" height="41" viewBox="0 0 188 41" fill="none"><g clip-path="url(#clip0_10940_21951)"><path d="M186.45 27.6111C185.87 27.6111 185.399 28.0848 185.399 28.6681C185.399 29.2513 185.87 29.7251 186.45 29.7251C187.03 29.7251 187.501 29.2513 187.501 28.6681C187.501 28.0848 187.03 27.6111 186.45 27.6111ZM186.45 29.5574C185.961 29.5574 185.565 29.1574 185.565 28.6681C185.565 28.1764 185.963 27.7787 186.45 27.7787C186.939 27.7787 187.337 28.1787 187.337 28.6681C187.337 29.1574 186.939 29.5574 186.45 29.5574ZM186.792 28.4871C186.792 28.2949 186.657 28.1809 186.457 28.1809H186.121V29.144H186.285V28.7955H186.465L186.639 29.144H186.816L186.625 28.7597C186.728 28.7128 186.792 28.6189 186.792 28.4871ZM186.45 28.6457H186.288V28.3262H186.45C186.561 28.3262 186.628 28.382 186.628 28.4849C186.628 28.5899 186.559 28.6457 186.45 28.6457ZM59.7943 16.9138V14.3574H55.8964V29.5664H59.7943V20.4469C59.7943 18.7955 60.8477 17.9842 62.49 17.9842H64.6234V14.3575H62.8011C61.3743 14.3574 60.1343 15.106 59.7943 16.9138ZM68.2746 8.3418C66.9412 8.3418 65.919 9.40103 65.919 10.7418C65.919 12.0513 66.9412 13.1105 68.2746 13.1105C69.608 13.1105 70.6303 12.0513 70.6303 10.7418C70.6302 9.40098 69.608 8.3418 68.2746 8.3418ZM66.3301 29.5664H70.2191V14.3574H66.3301V29.5664ZM88.7442 21.9619C88.7442 26.3038 85.2441 29.8234 80.9261 29.8234C79.1838 29.8234 77.6038 29.2491 76.337 28.2792V34.0312H72.448V14.3574H76.337V15.6445C77.6038 14.6747 79.1838 14.1004 80.9261 14.1004C85.2441 14.1004 88.7442 17.62 88.7442 21.9619ZM84.8308 21.9619C84.8308 19.6044 82.9285 17.6915 80.5839 17.6915C78.2394 17.6915 76.3371 19.6044 76.3371 21.9619C76.3371 24.3195 78.2394 26.2323 80.5839 26.2323C82.9285 26.2323 84.8308 24.3217 84.8308 21.9619ZM156.338 20.6278L154.069 20.0021C152.575 19.611 151.995 19.1507 151.995 18.3574C151.995 17.5842 152.813 17.0435 153.982 17.0435C155.096 17.0435 155.969 17.7764 155.969 18.7149V18.8021H159.553V18.7149C159.553 15.9551 157.316 14.1004 153.982 14.1004C150.682 14.1004 148.284 15.9529 148.284 18.5071C148.284 20.4937 149.593 21.9909 151.878 22.6121L154.051 23.2088C155.702 23.6691 156.316 24.1786 156.316 25.0926C156.316 26.0558 155.429 26.7038 154.109 26.7038C152.733 26.7038 151.806 25.8278 151.806 24.5272V24.4401H148.002V24.5272C148.002 27.6468 150.5 29.8278 154.078 29.8278C157.524 29.8278 160.027 27.6982 160.027 24.7663C160.027 23.3272 159.387 21.4457 156.338 20.6278ZM102.54 14.3574H106.429V29.5664H102.54V28.2792C101.274 29.249 99.6935 29.8233 97.9512 29.8233C93.6333 29.8233 90.1332 26.3038 90.1332 21.9618C90.1332 17.6199 93.6333 14.1004 97.9512 14.1004C99.6935 14.1004 101.274 14.6747 102.54 15.6445V14.3574ZM102.54 21.9619C102.54 19.6021 100.638 17.6915 98.2934 17.6915C95.9489 17.6915 94.0466 19.6044 94.0466 21.9619C94.0466 24.3195 95.9489 26.2323 98.2934 26.2323C100.64 26.2323 102.54 24.3217 102.54 21.9619ZM120.472 8.94514H124.361V29.5686H120.472V28.2814C119.205 29.2513 117.625 29.8256 115.883 29.8256C111.565 29.8256 108.065 26.306 108.065 21.9641C108.065 17.6221 111.565 14.1026 115.883 14.1026C117.625 14.1026 119.205 14.6769 120.472 15.6467V8.94514ZM120.472 21.9619C120.472 19.6044 118.57 17.6915 116.225 17.6915C113.881 17.6915 111.978 19.6044 111.978 21.9619C111.978 24.3195 113.878 26.2323 116.225 26.2323C118.57 26.2323 120.472 24.3217 120.472 21.9619ZM142.417 29.5664H146.306V14.3574H142.417V29.5664ZM144.362 8.3418C143.028 8.3418 142.006 9.40103 142.006 10.7418C142.006 12.0513 143.028 13.1105 144.362 13.1105C145.695 13.1105 146.717 12.0513 146.717 10.7418C146.717 9.40098 145.695 8.3418 144.362 8.3418ZM176.836 21.9619C176.836 26.3038 173.336 29.8234 169.018 29.8234C164.7 29.8234 161.2 26.3038 161.2 21.9619C161.2 17.6199 164.7 14.1004 169.018 14.1004C173.336 14.1004 176.836 17.62 176.836 21.9619ZM173.265 21.9619C173.265 19.6044 171.363 17.6915 169.018 17.6915C166.674 17.6915 164.771 19.6044 164.771 21.9619C164.771 24.3195 166.671 26.2323 169.018 26.2323C171.363 26.2323 173.265 24.3217 173.265 21.9619ZM57.8031 8.94514H42.8848V12.4334H48.4072V29.5664H52.2829V12.4334H57.8054V8.94514H57.8031ZM133.248 25.401L129.788 14.3575H125.703L130.892 29.5664H135.573L140.793 14.3575H136.708L133.248 25.401ZM182.534 16.9138V14.3574H178.636V29.5664H182.534V20.4469C182.534 18.7955 183.588 17.9842 185.23 17.9842H187.363V14.3575H185.541C184.114 14.3574 182.876 15.106 182.534 16.9138Z" fill="black"></path><path d="M20.3915 40.8828C31.3763 40.8828 40.2811 31.9285 40.2811 20.8828C40.2811 9.83712 31.3763 0.882812 20.3915 0.882812C9.40682 0.882812 0.501953 9.83712 0.501953 20.8828C0.501953 31.9285 9.40682 40.8828 20.3915 40.8828Z" fill="#34E0A1"></path><path d="M32.6763 16.9808L35.0764 14.3551H29.754C27.0895 12.5249 23.8716 11.459 20.3915 11.459C16.9157 11.459 13.7068 12.5272 11.0467 14.3551H5.71094L8.11103 16.9808C6.63989 18.3305 5.71763 20.2747 5.71763 22.4333C5.71763 26.5071 9.00223 29.8099 13.0535 29.8099C14.978 29.8099 16.7314 29.0635 18.0403 27.8434L20.3915 30.4177L22.7427 27.8456C24.0517 29.0658 25.8028 29.8099 27.7273 29.8099C31.7786 29.8099 35.0676 26.5071 35.0676 22.4333C35.0697 20.2724 34.1475 18.3283 32.6763 16.9808ZM13.0557 27.4255C10.3133 27.4255 8.09107 25.1909 8.09107 22.4333C8.09107 19.6758 10.3134 17.4411 13.0557 17.4411C15.798 17.4411 18.0202 19.6758 18.0202 22.4333C18.0202 25.1909 15.798 27.4255 13.0557 27.4255ZM20.3937 22.2881C20.3937 19.0031 18.0181 16.183 14.8824 14.9786C16.578 14.2657 18.4381 13.8702 20.3915 13.8702C22.3449 13.8702 24.2071 14.2657 25.9028 14.9786C22.7694 16.1853 20.3937 19.0032 20.3937 22.2881ZM27.7295 27.4255C24.9872 27.4255 22.7649 25.1909 22.7649 22.4333C22.7649 19.6758 24.9872 17.4411 27.7295 17.4411C30.4719 17.4411 32.6941 19.6758 32.6941 22.4333C32.6941 25.1909 30.4718 27.4255 27.7295 27.4255ZM27.7295 19.8143C26.2917 19.8143 25.1272 20.9853 25.1272 22.4311C25.1272 23.8769 26.2917 25.0478 27.7295 25.0478C29.1673 25.0478 30.3318 23.8769 30.3318 22.4311C30.3318 20.9875 29.1673 19.8143 27.7295 19.8143ZM15.658 22.4333C15.658 23.8791 14.4935 25.0501 13.0557 25.0501C11.6179 25.0501 10.4534 23.8791 10.4534 22.4333C10.4534 20.9875 11.6179 19.8165 13.0557 19.8165C14.4935 19.8143 15.658 20.9875 15.658 22.4333Z" fill="black"></path></g><defs><clipPath id="clip0_10940_21951"><rect width="187" height="40" fill="white" transform="translate(0.501953 0.882812)"></rect></clipPath></defs></svg>