<svg width="28" height="28" viewBox="0 0 28 28" fill="none" xmlns="http://www.w3.org/2000/svg">
<path d="M19.8333 22.75C19.8333 20.817 17.2217 19.25 14 19.25C10.7783 19.25 8.16667 20.817 8.16667 22.75M24.5 19.2504C24.5 17.8152 23.0602 16.5818 21 16.0417M3.5 19.2504C3.5 17.8152 4.93978 16.5818 7 16.0417M21 11.3588C21.716 10.7179 22.1667 9.78658 22.1667 8.75C22.1667 6.817 20.5997 5.25 18.6667 5.25C17.7703 5.25 16.9525 5.587 16.3333 6.14121M7 11.3588C6.28396 10.7179 5.83333 9.78658 5.83333 8.75C5.83333 6.817 7.40034 5.25 9.33333 5.25C10.2297 5.25 11.0475 5.587 11.6667 6.14121M14 15.75C12.067 15.75 10.5 14.183 10.5 12.25C10.5 10.317 12.067 8.75 14 8.75C15.933 8.75 17.5 10.317 17.5 12.25C17.5 14.183 15.933 15.75 14 15.75Z" stroke="#111111" stroke-width="1.5" stroke-linecap="round" stroke-linejoin="round"/>
</svg>
