<svg width="22" height="22" viewBox="0 0 22 22" fill="none" xmlns="http://www.w3.org/2000/svg">
<path d="M15.5833 17.875C15.5833 16.3562 13.5313 15.125 11 15.125C8.46869 15.125 6.41667 16.3562 6.41667 17.875M19.25 15.1253C19.25 13.9977 18.1187 13.0285 16.5 12.6042M2.75 15.1253C2.75 13.9977 3.88125 13.0285 5.5 12.6042M16.5 8.92476C17.0626 8.42122 17.4167 7.68946 17.4167 6.875C17.4167 5.35622 16.1855 4.125 14.6667 4.125C13.9623 4.125 13.3199 4.38978 12.8333 4.82524M5.5 8.92476C4.9374 8.42122 4.58333 7.68946 4.58333 6.875C4.58333 5.35622 5.81455 4.125 7.33333 4.125C8.03766 4.125 8.68014 4.38978 9.16667 4.82524M11 12.375C9.48122 12.375 8.25 11.1438 8.25 9.625C8.25 8.10622 9.48122 6.875 11 6.875C12.5188 6.875 13.75 8.10622 13.75 9.625C13.75 11.1438 12.5188 12.375 11 12.375Z" stroke="#111111" stroke-width="1.5" stroke-linecap="round" stroke-linejoin="round"/>
</svg>
